<mxfile host="app.diagrams.net" agent="Mozilla/5.0 (Macintosh; Intel Mac OS X 10_15_7) AppleWebKit/537.36 (KHTML, like Gecko) Chrome/134.0.0.0 Safari/537.36" version="26.1.1">
  <diagram id="osec3hlW7rASFOlQ1IfX" name="第 1 页">
    <mxGraphModel dx="1368" dy="912" grid="1" gridSize="10" guides="1" tooltips="1" connect="1" arrows="1" fold="1" page="1" pageScale="1" pageWidth="827" pageHeight="1169" math="0" shadow="0">
      <root>
        <mxCell id="0" />
        <mxCell id="1" parent="0" />
        <mxCell id="VgrEgSO6s5cVSUkasEul-56" value="" style="rounded=0;whiteSpace=wrap;html=1;dashed=1;strokeColor=#000000;fillColor=#FFFFFF;" parent="1" vertex="1">
          <mxGeometry x="60" y="40" width="1040" height="710" as="geometry" />
        </mxCell>
        <mxCell id="VgrEgSO6s5cVSUkasEul-61" value="" style="rounded=0;whiteSpace=wrap;html=1;dashed=1;strokeColor=#000000;fillColor=#FFFFFF;" parent="1" vertex="1">
          <mxGeometry x="94" y="230" width="976" height="370" as="geometry" />
        </mxCell>
        <mxCell id="VgrEgSO6s5cVSUkasEul-58" value="" style="rounded=1;whiteSpace=wrap;html=1;strokeColor=#333333;fillColor=default;dashed=1;" parent="1" vertex="1">
          <mxGeometry x="94" y="80" width="976" height="56" as="geometry" />
        </mxCell>
        <mxCell id="VgrEgSO6s5cVSUkasEul-29" value="" style="rounded=1;whiteSpace=wrap;html=1;strokeColor=#333333;fillColor=default;dashed=1;" parent="1" vertex="1">
          <mxGeometry x="94" y="642" width="976" height="80" as="geometry" />
        </mxCell>
        <mxCell id="VgrEgSO6s5cVSUkasEul-28" style="edgeStyle=orthogonalEdgeStyle;rounded=0;orthogonalLoop=1;jettySize=auto;html=1;startArrow=none;startFill=0;dashed=1;dashPattern=1 1;entryX=0.111;entryY=0.1;entryDx=0;entryDy=0;entryPerimeter=0;" parent="1" target="VgrEgSO6s5cVSUkasEul-29" edge="1">
          <mxGeometry relative="1" as="geometry">
            <Array as="points" />
            <mxPoint x="202" y="660" as="targetPoint" />
            <mxPoint x="203" y="280" as="sourcePoint" />
          </mxGeometry>
        </mxCell>
        <mxCell id="VgrEgSO6s5cVSUkasEul-1" value="Nginx" style="rounded=1;whiteSpace=wrap;html=1;fillColor=#99FFFF;strokeColor=#00CCCC;sketch=1;fillStyle=zigzag;" parent="1" vertex="1">
          <mxGeometry x="140" y="240" width="750" height="40" as="geometry" />
        </mxCell>
        <mxCell id="VgrEgSO6s5cVSUkasEul-24" value="ElasticSearch" style="rounded=1;whiteSpace=wrap;html=1;sketch=1;fillStyle=zigzag;fillColor=#FFCCCC;strokeColor=#FF6666;" parent="1" vertex="1">
          <mxGeometry x="740" y="662" width="110" height="40" as="geometry" />
        </mxCell>
        <mxCell id="VgrEgSO6s5cVSUkasEul-25" value="Goldendb" style="rounded=1;whiteSpace=wrap;html=1;sketch=1;fillStyle=zigzag;fillColor=#FFCCCC;strokeColor=#FF6666;" parent="1" vertex="1">
          <mxGeometry x="450" y="662" width="90" height="40" as="geometry" />
        </mxCell>
        <mxCell id="VgrEgSO6s5cVSUkasEul-27" value="静态文件" style="rounded=1;whiteSpace=wrap;html=1;fillColor=#CCE5FF;strokeColor=#3399FF;sketch=1;fillStyle=zigzag;" parent="1" vertex="1">
          <mxGeometry x="160" y="662" width="90" height="40" as="geometry" />
        </mxCell>
        <mxCell id="VgrEgSO6s5cVSUkasEul-32" value="存储层" style="text;html=1;strokeColor=none;fillColor=none;align=left;verticalAlign=middle;whiteSpace=wrap;rounded=0;dashed=1;" parent="1" vertex="1">
          <mxGeometry x="98" y="637" width="80" height="30" as="geometry" />
        </mxCell>
        <mxCell id="VgrEgSO6s5cVSUkasEul-34" value="网关服务" style="text;html=1;strokeColor=none;fillColor=none;align=left;verticalAlign=middle;whiteSpace=wrap;rounded=0;dashed=1;" parent="1" vertex="1">
          <mxGeometry x="312.68" y="307" width="80" height="30" as="geometry" />
        </mxCell>
        <mxCell id="VgrEgSO6s5cVSUkasEul-46" value="" style="dashed=0;outlineConnect=0;html=1;align=center;labelPosition=center;verticalLabelPosition=bottom;verticalAlign=top;shape=mxgraph.weblogos.chrome;strokeColor=#000000;fillColor=#FFFFFF;" parent="1" vertex="1">
          <mxGeometry x="782" y="88" width="41" height="40" as="geometry" />
        </mxCell>
        <mxCell id="VgrEgSO6s5cVSUkasEul-48" value="Console" style="text;html=1;strokeColor=none;fillColor=none;align=left;verticalAlign=middle;whiteSpace=wrap;rounded=0;dashed=1;" parent="1" vertex="1">
          <mxGeometry x="833" y="93" width="60" height="30" as="geometry" />
        </mxCell>
        <mxCell id="VgrEgSO6s5cVSUkasEul-50" value="" style="shape=image;aspect=fixed;image=data:image/png,iVBORw0KGgoAAAANSUhEUgAAAEgAAABMCAYAAADOfPFRAAAMO2lDQ1BJQ0MgUHJvZmlsZQAASImVVwdYU8kWnluSkJCEEoiAlNCbINKLlBBaAAGpgo2QBAglhEAQsaOLCq5dRMGGrorY1gLIWhG7i2DvCyIqyrpYsJc3KaDrvvK9+b65899/zvznzLlz750BQOM4TyLJQTUByBUXSmNDA1njklNYpEeADOiwegFNHr9Awo6JiQSwDLZ/L2+uA0TeXnGQa/2z/78WLYGwgA8AEgNxmqCAnwvxAQDwGr5EWggAUc6bTymUyDGsQEcKA4R4gRxnKHGNHKcp8V6FTXwsB+JWANSoPJ40AwB6O+RZRfwMqEHvh9hJLBCJAdBgQeyXm5sngDgVYhtoI4FYru+Z9p1Oxt8004Y0ebyMIayci6KoBYkKJDm8qf9nOv53yc2RDfqwgpWaKQ2Llc8Z5u1mdl6EHFMh7hOnRUVDrA3xO5FAYQ8xSsmUhSUo7VFDfgEH5gwwIXYS8IIiIDaEOEScExWp4tPSRSFciOEKQYtFhdx4iPUgXiAsCI5T2WyU5sWqfKEN6VIOW8Wf5UkVfuW+7suyE9gq/ZeZQq5KH6OXZMYnQUyB2KJIlBgFMR1ix4LsuAiVzeiSTE7UoI1UFiuP3wLiWKE4NFCpjxWlS0NiVfbluQWD88U2Zoq4USq8rzAzPkyZH6yVz1PED+eCtQvF7IRBHWHBuMjBuQiEQcHKuWNPhOKEOJXOO0lhYKxyLE6R5MSo7HEzYU6onDeD2LWgKE41Fk8shAtSqY+nSwpj4pVx4iVZvPAYZTz4UhAJOCAIsIAM1jSQB7KAqK2vsQ/eKXtCAA9IQQYQAgcVMzgiSdEjhtc4UAL+hEgICobGBSp6haAI8p+HWOXVAaQreosUI7LBI4hzQQTIgfcyxSjxkLdE8BAyon9458HKh/HmwCrv//f8IPuNYUMmUsXIBj2yNAYticHEIGIYMYRoixvgfrgPHgmvAbA645641+A8vtkTHhE6CA8I1widhFuTRaXSH6IcAzqhfogqF2nf5wK3gppueCDuC9WhMs7EDYAD7gr9sHF/6NkNshxV3PKssH7Q/tsMvnsaKjuyExklDyMHkG1+HEm3o7sNqchz/X1+lLGmDeWbM9Tzo3/Od9kXwDbiR0tsAbYfO4OdwM5hh7FGwMKOYU3YReyIHA+troeK1TXoLVYRTzbUEf3D3+CTlWeywKneqdfpk7KvUFgs/0YDTp5kqlSUkVnIYsM/gpDFFfMdR7CcnZydAZD/X5Sfr1dMxX8DYZ7/xuUfB8CrHJIZ3zieOQCHHgHAePONM38JX5ulABxp58ukRUoOl18I8CuhAd80fWAMzIENnI8zcAc+IAAEg3AQDeJBMpgEo8+E61wKpoDpYA4oAxVgKVgF1oINYDPYDnaBfaARHAYnwGlwAbSDa+AOXD094BnoB2/ARwRBSAgNYSD6iAliidgjzogn4ocEI5FILJKMpCIZiBiRIdORuUgFshxZi2xC6pBfkUPICeQc0oHcQrqQXuQl8gHFUCqqgxqhVuhI1BNloxFoPDoRzUDz0RJ0HroYrUJr0Z1oA3oCvYBeQzvRZ+gABjB1jImZYg6YJ8bBorEULB2TYjOxcqwSq8V2Y83wOV/BOrE+7D1OxBk4C3eAKzgMT8D5eD4+E1+Er8W34w14K34F78L78S8EGsGQYE/wJnAJ4wgZhCmEMkIlYSvhIOEUfJd6CG+IRCKTaE30gO9iMjGLOI24iLiOuId4nNhB7CYOkEgkfZI9yZcUTeKRCkllpDWknaRjpMukHtI7NXU1EzVntRC1FDWxWqlapdoOtaNql9Ueq30ka5Ityd7kaLKAPJW8hLyF3Ey+RO4hf6RoUawpvpR4ShZlDqWKsptyinKX8kpdXd1M3Ut9rLpIfbZ6lfpe9bPqXervqdpUOyqHOoEqoy6mbqMep96ivqLRaFa0AFoKrZC2mFZHO0m7T3tHZ9Ad6Vy6gD6LXk1voF+mP9cga1hqsDUmaZRoVGrs17ik0adJ1rTS5GjyNGdqVmse0ryhOaDF0BqlFa2Vq7VIa4fWOa0n2iRtK+1gbYH2PO3N2ie1uxkYw5zBYfAZcxlbGKcYPTpEHWsdrk6WToXOLp02nX5dbV1X3UTdYt1q3SO6nUyMacXkMnOYS5j7mNeZH4YZDWMPEw5bOGz3sMvD3uoN1wvQE+qV6+3Ru6b3QZ+lH6yfrb9Mv1H/ngFuYGcw1mCKwXqDUwZ9w3WG+wznDy8fvm/4bUPU0M4w1nCa4WbDi4YDRsZGoUYSozVGJ436jJnGAcZZxiuNjxr3mjBM/ExEJitNjpk8Zemy2KwcVhWrldVvamgaZioz3WTaZvrRzNoswazUbI/ZPXOKuad5uvlK8xbzfgsTizEW0y3qLW5bki09LTMtV1uesXxrZW2VZDXfqtHqibWeNde6xLre+q4NzcbfJt+m1uaqLdHW0zbbdp1tux1q52aXaVdtd8ketXe3F9mvs+8YQRjhNUI8onbEDQeqA9uhyKHeocuR6RjpWOrY6Ph8pMXIlJHLRp4Z+cXJzSnHaYvTnVHao8JHlY5qHvXS2c6Z71ztfNWF5hLiMsulyeWFq72r0HW96003htsYt/luLW6f3T3cpe673Xs9LDxSPWo8bnjqeMZ4LvI860XwCvSa5XXY6723u3eh9z7vv3wcfLJ9dvg8GW09Wjh6y+huXzNfnu8m304/ll+q30a/Tn9Tf55/rf+DAPMAQcDWgMdsW3YWeyf7eaBToDTwYOBbjjdnBud4EBYUGlQe1BasHZwQvDb4fohZSEZIfUh/qFvotNDjYYSwiLBlYTe4Rlw+t47bH+4RPiO8NYIaERexNuJBpF2kNLJ5DDomfMyKMXejLKPEUY3RIJobvSL6Xox1TH7Mb2OJY2PGVo99FDsqdnrsmThG3OS4HXFv4gPjl8TfSbBJkCW0JGokTkisS3ybFJS0PKlz3MhxM8ZdSDZIFiU3pZBSElO2pgyMDx6/anzPBLcJZROuT7SeWDzx3CSDSTmTjkzWmMybvD+VkJqUuiP1Ey+aV8sbSOOm1aT18zn81fxnggDBSkGv0Fe4XPg43Td9efqTDN+MFRm9mf6ZlZl9Io5orehFVljWhqy32dHZ27K/5iTl7MlVy03NPSTWFmeLW/OM84rzOiT2kjJJZ753/qr8fmmEdGsBUjCxoKlQB27kL8psZD/Juor8iqqL3k1JnLK/WKtYXHxxqt3UhVMfl4SU/DINn8af1jLddPqc6V0z2DM2zURmps1smWU+a96sntmhs7fPoczJnvN7qVPp8tLXc5PmNs8zmjd7XvdPoT/Vl9HLpGU35vvM37AAXyBa0LbQZeGahV/KBeXnK5wqKis+LeIvOv/zqJ+rfv66OH1x2xL3JeuXEpeKl15f5r9s+3Kt5SXLu1eMWdGwkrWyfOXrVZNXnat0rdywmrJatrqzKrKqaY3FmqVrPq3NXHutOrB6T41hzcKat+sE6y6vD1i/e4PRhooNHzaKNt7cFLqpodaqtnIzcXPR5kdbErec+cXzl7qtBlsrtn7eJt7WuT12e2udR13dDsMdS+rRell9784JO9t3Be1q2u2we9Me5p6KvWCvbO/TX1N/vb4vYl/Lfs/9uw9YHqg5yDhY3oA0TG3ob8xs7GxKbuo4FH6opdmn+eBvjr9tO2x6uPqI7pElRylH5x39eqzk2MBxyfG+Exknulsmt9w5Oe7k1daxrW2nIk6dPR1y+uQZ9pljZ33PHj7nfe7Qec/zjRfcLzRcdLt48He33w+2ubc1XPK41NTu1d7cMbrj6GX/yyeuBF05fZV79cK1qGsd1xOu37wx4UbnTcHNJ7dybr24XXT7453Zdwl3y+9p3qu8b3i/9g/bP/Z0unce6Qrquvgg7sGdbn73s4cFDz/1zHtEe1T52ORx3RPnJ4d7Q3rbn45/2vNM8uxjX9mfWn/WPLd5fuCvgL8u9o/r73khffH15aJX+q+2vXZ93TIQM3D/Te6bj2/L3+m/2/7e8/2ZD0kfHn+c8on0qeqz7efmLxFf7n7N/fpVwpPyFFsBDFY0PR2Al9sAoCXDvQM8n1HGK89/ioIoz6wKBP4TVp4RFcUdgG0BACTMBiAS7lHWw2oJMRW28i18fABAXVyG6uBZTXGulBciPAdsdJSj9p7n4MeiPHN+F/ePLZCruoIf238BHo96syUNpmAAAACKZVhJZk1NACoAAAAIAAQBGgAFAAAAAQAAAD4BGwAFAAAAAQAAAEYBKAADAAAAAQACAACHaQAEAAAAAQAAAE4AAAAAAAAAkAAAAAEAAACQAAAAAQADkoYABwAAABIAAAB4oAIABAAAAAEAAABIoAMABAAAAAEAAABMAAAAAEFTQ0lJAAAAU2NyZWVuc2hvdPaclV8AAAAJcEhZcwAAFiUAABYlAUlSJPAAAAHUaVRYdFhNTDpjb20uYWRvYmUueG1wAAAAAAA8eDp4bXBtZXRhIHhtbG5zOng9ImFkb2JlOm5zOm1ldGEvIiB4OnhtcHRrPSJYTVAgQ29yZSA2LjAuMCI+CiAgIDxyZGY6UkRGIHhtbG5zOnJkZj0iaHR0cDovL3d3dy53My5vcmcvMTk5OS8wMi8yMi1yZGYtc3ludGF4LW5zIyI+CiAgICAgIDxyZGY6RGVzY3JpcHRpb24gcmRmOmFib3V0PSIiCiAgICAgICAgICAgIHhtbG5zOmV4aWY9Imh0dHA6Ly9ucy5hZG9iZS5jb20vZXhpZi8xLjAvIj4KICAgICAgICAgPGV4aWY6UGl4ZWxZRGltZW5zaW9uPjc2PC9leGlmOlBpeGVsWURpbWVuc2lvbj4KICAgICAgICAgPGV4aWY6UGl4ZWxYRGltZW5zaW9uPjcyPC9leGlmOlBpeGVsWERpbWVuc2lvbj4KICAgICAgICAgPGV4aWY6VXNlckNvbW1lbnQ+U2NyZWVuc2hvdDwvZXhpZjpVc2VyQ29tbWVudD4KICAgICAgPC9yZGY6RGVzY3JpcHRpb24+CiAgIDwvcmRmOlJERj4KPC94OnhtcG1ldGE+CnT7QmcAAAAcaURPVAAAAAIAAAAAAAAAJgAAACgAAAAmAAAAJgAABcoLNsyBAAAFlklEQVR4Aexaa2xVRRD+5tjy+EFAVB6tioCIWh9gfMRHNFHAyEMlSIkEUaI8KsYHIlYLNlgeTa1UVISCpfJDHlXUxBSESgEjJgrS+mhUGtsQsDUoBEhNIZAzzt5iuT1n95x7zz1t/XEnOememZ3Zud/umZ3ZLbEQkmREgJIAGbGJCJIAeeODJEBJgHwQ8BEnV1ASIB8EfMTJFdRZAPGPPwFHjkQebvwTaGwEGuQ5fdrHJR9xjx5AWn9QWhrQt688fUDp6cDgQT6KwcShryDe8w1QuQtcXR3Mo4BaNHIE1BM2UKEBxDt2gnfuBH75NeBPDEctbKASB+j4CfDKYvC+feH8wpCs0JPTQKMfSNhaYgAdPAh7xUrg9zpvR7p1A3r1BHr2AlJTvPv6SZtPASeOAzIxOHvWu7cAZAlQiVBggLj6B7AC59gx/fg3DQcNHwaSv+jXT98nQS7X1gJV4sfevUBdvdZaZPzZT4PUBAWgQABxTQ34tYX64YYMAY0dDbrrTr28HbisVlL5VnD5FuDoUfcIA6+AlSf+du/ulvlwAgFk58pgP9e4Td9xO6wXX3DzO4pz+DDswiLg0CHXiDR2DGja4y6+HyNugOxNHwFl8jgphO/daTLou52dA6jPz0G0IAc07EYH1/s1PoDUDD03x20xcyKsSRPd/E7kaFf5QPnUCgvi8io2gOS75t8OgHdUAhKco4nuuRv07DPRLHNbxQrZ+fiU7EQBiPpKsL/4otg0ZZezX18UGa+NgkwmDb0q8sQSk3wB4u0V4OI1bcZofenaFVb+EuDyy1pZ2oYsd7t0HVjSAfLbmrUGopi9ewNXDoY1YzpwoaQNHsS7doPfWaHvIaUKzZoOysjQy89xPQEyxpv/lCeMB01+1HMArpQMW6UDYVNKCqyFucDVQz0t24tkAqsMZU+XLqA5z4NuudlowwyQijcq2DU3m5WXF4EuTTfKueJL8KrVRnkYAmutrO6e5hzHd4Kuy2gB2uCMESD7g3XA5+UGNWFL9WwV5BvlXF8Pni8zHDDeGA07BGr2KXuegxv1evIk7GlPRTHcTZIcia69xi0QjhmgV+cDEpiN5LNzccUOWT3FRvUwBdayN4ABA4wmtTtaVG/KmgUacW8U53zTDNCEzPO9NC2aKQFu1EiNpIVlrykBvthmlIcpULuo2k1NZC97C1DHMAai8Q+DpkzWSoMDNG8u6LZbtUYVk5cWdFiFT1OngB560OzL2lIpQ7Ya5e0DkE9WymUfgzeVGZ0KU2DlvAKoothAvH4DePOnBqnEmXZZQT7Lmr/eAy5abnQqTIG1UnKdPpcYTfJ7q1qSXEOPYABlzZbz5L8MJgX1qY/Jsh5nlOPMGdgvZWsLR7NSAIn4YIkvXmQvkd32+/3GLtYTUsSOG6OVG2MQv/0uePdXWiXFjKnEMNVuRqvxCVjKjguK/ZNQe2YW8LfmGOTccF6fqBkgqbvU0jSSHEBZJYYSJFpJbjbsPMlmGxqiuYm35dzJyl/sa0cdqrFKeE2UmgoqehPUX+o8DRkBUn3tPHHAUZxG21AJmlea3tpXrnp4Yxm4To5m1fGsR3beqqNryHUPBsn1jtRRsZ4e+JVLkABtGbZ45YInQOpeK3LmrDscU8o3XA/KXaD7Kf8LHv/RAFYJb1OT1h+6fxRohk+W7fv/QTL79oaNwIFabWZNWTMlC71P60BnM+3V7wPbtrd1Qx27Ro47hoIyH2kr07x5ryCHAm+Rc9+SUgdXVpLkIZHDcZek8ximT4skbpHEr1gpLoCUUXvxUmB/lcu+tbljkkLXwBoGi3+s/HQQTcqMadVEq8UNUKRKn/tytI3Wtl/R2NqxHRv87XfggkL3CDHuek7FuAFSBviTz8Afrnfairx3Vkzipn9arn10FwriWdAw8C8AAAD//wOFSToAAAbASURBVN1aCYhVVRj+zn0z4q5JoyCIlToKjqWlFWRQabRQWkRKlEiEpYapmKa5ZSWj41aIJYktyqAmLWZaUakt7pWQ2UJphhoqKCaCZTP39H/X+WfOXV4Nvvtu4A9vzjnf+dfvnnvefeeOsSK4ALGLl8Bu+SzR0lzZC7jzDph+fRPnUwVPn4bdvgN2w0bgyO+Jrs2wB2HuGZw491+guVCC6NhWr4J9+528MWyrVjC9KmC6dgXatgHayKe0JK9+YybMn3/BnjoFnPoDdu9e4PsfgNraZNPWrWFGPQZzbb/k+UagBRFE/7xy9tXXGxEqY5Xu3WFGPAJz+WUFBS6YIEa3X26FfX8D8PMvBSWTlrG5dSB4W6FFi4JdpkKQZmE//wL2003Ad/sUyrQNiBFy0OWK1OKmSlB9Vjt3wd+0GTh0CDh2vB5OvdOsGVB2KQxvp5SJ0VyLQ5B6Z3v2LHD0KOzRY9Iegz13DnhzravR0B9yP3D4MLBtewPm9oQQ88BQIaUMpkN72LL2MM2FpCJK8QmKJG/nLYDdsTOCyvD22+DJpspvJL+yCtizJ64jiBk9EmbALYlzxQCzJUhuOX/chFgdpu81MFOeasDPnIGdOw+WX+FR6X0VvOlTo2jRxpkSxMeB4IEuUo6pqoTp0iWE2uPHA5Jw8LcQzoE3txLoGtaPKaUEZEaQlc3ajhkbe6gzN/aHGfdEYjl26zbYhS/E52Sv8obKfpWBZEfQ6jWwa9+KlWTkdjFy2+QTf/QY+SaUDd6Vbt3gzZntIkXrZ0aQP2EScPBguBB5XvGq5oSxyMhfWQ28uy6Cym22bCnQrl0MTxvIhqBzf8Mf/jDAr3hHzL2DYR6SJ95/k5Mn4Y8YGdMwz86E6dkzhqcNZEOQrJxgBUWy9xbOAzp3jqDxoX/fkBh4UREU/FZb9GK4yKZN4VWvCGN5Rhc/QUkbdPsyeC8vyUOJA584Af/RUQ5wvntRrSB//kJADrVCIs8xwfNMCIwPrPzssAsWxSa81bJ5l5bG8LSBTPag4Kl41+5w7o0laOkrsB9/Erat6Alv1swwVqRRNgQtfw124wfhEhpzi+0/AH/S5LCdjMygu2GGD4vhxQCyIWjdetgVK8P5N2KT9rmxy2FcVEzlbJjyblG4KONsCMq3jyyWnxEdOyYWZt9YCfve+tic6X8DzHj5yZKRZEIQDh+BP3Z8rKR8bxvsvn2wM2bF9AmYaU/D9OmdOFcMMBuCJHN/ohxnHPg1XEOP7vBmPxfGqLtsOfDhRzEccg7kyXlQlpIdQXw9VL0qVpuZOAHm+utCuL9GThyjp46dOsGrfB7gMWuGkhlBdv9+2ElT4qUlfGXbH3+CnTq9QZfvt54cn8lvr4ag53uZEcRwtmo+rBzoRyV4uTdwQBj++hvY3V/BtmwJb9BdgJD0f0i2BMmbUPtMfM+BkICp8rzDN7AinufB930YY4IxW74hZ1srZ9a5XC7AqUNdndO36FFbKtNW9TlWXY3BsWJu/EwJChKTd/o1m7cgx6IF8CWxoC+HYLlpU+A3b56XIBbAgvhxC3JxnWMs7bvz7JMoksw+CS8pKQn61FcSleTMCGLAIGk+HU+Wr+pgJCewShDHN98E7/FR9YURYhFaoHtltRDOEdeVpXF0ZXFMMqI4yaCoHf2oKLEcF5UgDepeGSZk5LeVla9yJYmrKNCRNicHYV5FRZA4i1RbJkt/LLampia46oqxpZCEUHF1JKgPJZIthThF7di6MYO+BG2gLlBP549eMSbhJshwHNfWHaXqmCR5THjWDNgePepvMy5/kkqhHZMmQWzrbZ1VogVGbXSlKAnBhWK8Or+K06f22aa+ggKnEpjFRIMxeUo9/tJS1Mj/GBElOX55OczMaTBNmpwnUYhxbQJi6/YM+tEi6U9vI/aVSObiFqu+aEucNvRBnB9irn3gX4BUVxDdMZAmqQGJuYkpbr/di1r52EvaAlf3Qa5DhyBZrhItOjB0/qitQkoc9d34aq/FJ8WnrRJDWyVL46e2ghiEzilagBtYk3eL4RVSXc5zrPb0FVxBKYB92qkuWxZQKgdmGoN2GoPzaq/+dE4J0Xjqk2P6Un21T4UgJUeTZRIaQIvT4jlH4ViT1OKpSx/86N6jhZEQ9cuiKNSnuL7cgom78WnvxtcYbnzau/ELJohJuIE1mCbHgEySY5VogUxIddSeY5LClqKFu7b0qTjtKNq68fVC6Lzrg/pufMbjvMYvmCAG1SQ1sLYaXOepq6L3OAuhHnVUj60ueU1eW86xTxvqUHTs2hOP+uVYcY3v2uqcG/8fjSrw8EqLoGwAAAAASUVORK5CYII=;" parent="1" vertex="1">
          <mxGeometry x="140.32" y="85" width="47.37" height="50" as="geometry" />
        </mxCell>
        <mxCell id="VgrEgSO6s5cVSUkasEul-51" value="Client" style="text;html=1;strokeColor=none;fillColor=none;align=left;verticalAlign=middle;whiteSpace=wrap;rounded=0;dashed=1;" parent="1" vertex="1">
          <mxGeometry x="187.69" y="100" width="60" height="30" as="geometry" />
        </mxCell>
        <mxCell id="VgrEgSO6s5cVSUkasEul-52" value="" style="shape=image;aspect=fixed;image=data:image/png,iVBORw0KGgoAAAANSUhEUgAAAEgAAABMCAYAAADOfPFRAAAMO2lDQ1BJQ0MgUHJvZmlsZQAASImVVwdYU8kWnluSkJCEEoiAlNCbINKLlBBaAAGpgo2QBAglhEAQsaOLCq5dRMGGrorY1gLIWhG7i2DvCyIqyrpYsJc3KaDrvvK9+b65899/zvznzLlz750BQOM4TyLJQTUByBUXSmNDA1njklNYpEeADOiwegFNHr9Awo6JiQSwDLZ/L2+uA0TeXnGQa/2z/78WLYGwgA8AEgNxmqCAnwvxAQDwGr5EWggAUc6bTymUyDGsQEcKA4R4gRxnKHGNHKcp8V6FTXwsB+JWANSoPJ40AwB6O+RZRfwMqEHvh9hJLBCJAdBgQeyXm5sngDgVYhtoI4FYru+Z9p1Oxt8004Y0ebyMIayci6KoBYkKJDm8qf9nOv53yc2RDfqwgpWaKQ2Llc8Z5u1mdl6EHFMh7hOnRUVDrA3xO5FAYQ8xSsmUhSUo7VFDfgEH5gwwIXYS8IIiIDaEOEScExWp4tPSRSFciOEKQYtFhdx4iPUgXiAsCI5T2WyU5sWqfKEN6VIOW8Wf5UkVfuW+7suyE9gq/ZeZQq5KH6OXZMYnQUyB2KJIlBgFMR1ix4LsuAiVzeiSTE7UoI1UFiuP3wLiWKE4NFCpjxWlS0NiVfbluQWD88U2Zoq4USq8rzAzPkyZH6yVz1PED+eCtQvF7IRBHWHBuMjBuQiEQcHKuWNPhOKEOJXOO0lhYKxyLE6R5MSo7HEzYU6onDeD2LWgKE41Fk8shAtSqY+nSwpj4pVx4iVZvPAYZTz4UhAJOCAIsIAM1jSQB7KAqK2vsQ/eKXtCAA9IQQYQAgcVMzgiSdEjhtc4UAL+hEgICobGBSp6haAI8p+HWOXVAaQreosUI7LBI4hzQQTIgfcyxSjxkLdE8BAyon9458HKh/HmwCrv//f8IPuNYUMmUsXIBj2yNAYticHEIGIYMYRoixvgfrgPHgmvAbA645641+A8vtkTHhE6CA8I1widhFuTRaXSH6IcAzqhfogqF2nf5wK3gppueCDuC9WhMs7EDYAD7gr9sHF/6NkNshxV3PKssH7Q/tsMvnsaKjuyExklDyMHkG1+HEm3o7sNqchz/X1+lLGmDeWbM9Tzo3/Od9kXwDbiR0tsAbYfO4OdwM5hh7FGwMKOYU3YReyIHA+troeK1TXoLVYRTzbUEf3D3+CTlWeywKneqdfpk7KvUFgs/0YDTp5kqlSUkVnIYsM/gpDFFfMdR7CcnZydAZD/X5Sfr1dMxX8DYZ7/xuUfB8CrHJIZ3zieOQCHHgHAePONM38JX5ulABxp58ukRUoOl18I8CuhAd80fWAMzIENnI8zcAc+IAAEg3AQDeJBMpgEo8+E61wKpoDpYA4oAxVgKVgF1oINYDPYDnaBfaARHAYnwGlwAbSDa+AOXD094BnoB2/ARwRBSAgNYSD6iAliidgjzogn4ocEI5FILJKMpCIZiBiRIdORuUgFshxZi2xC6pBfkUPICeQc0oHcQrqQXuQl8gHFUCqqgxqhVuhI1BNloxFoPDoRzUDz0RJ0HroYrUJr0Z1oA3oCvYBeQzvRZ+gABjB1jImZYg6YJ8bBorEULB2TYjOxcqwSq8V2Y83wOV/BOrE+7D1OxBk4C3eAKzgMT8D5eD4+E1+Er8W34w14K34F78L78S8EGsGQYE/wJnAJ4wgZhCmEMkIlYSvhIOEUfJd6CG+IRCKTaE30gO9iMjGLOI24iLiOuId4nNhB7CYOkEgkfZI9yZcUTeKRCkllpDWknaRjpMukHtI7NXU1EzVntRC1FDWxWqlapdoOtaNql9Ueq30ka5Ityd7kaLKAPJW8hLyF3Ey+RO4hf6RoUawpvpR4ShZlDqWKsptyinKX8kpdXd1M3Ut9rLpIfbZ6lfpe9bPqXervqdpUOyqHOoEqoy6mbqMep96ivqLRaFa0AFoKrZC2mFZHO0m7T3tHZ9Ad6Vy6gD6LXk1voF+mP9cga1hqsDUmaZRoVGrs17ik0adJ1rTS5GjyNGdqVmse0ryhOaDF0BqlFa2Vq7VIa4fWOa0n2iRtK+1gbYH2PO3N2ie1uxkYw5zBYfAZcxlbGKcYPTpEHWsdrk6WToXOLp02nX5dbV1X3UTdYt1q3SO6nUyMacXkMnOYS5j7mNeZH4YZDWMPEw5bOGz3sMvD3uoN1wvQE+qV6+3Ru6b3QZ+lH6yfrb9Mv1H/ngFuYGcw1mCKwXqDUwZ9w3WG+wznDy8fvm/4bUPU0M4w1nCa4WbDi4YDRsZGoUYSozVGJ436jJnGAcZZxiuNjxr3mjBM/ExEJitNjpk8Zemy2KwcVhWrldVvamgaZioz3WTaZvrRzNoswazUbI/ZPXOKuad5uvlK8xbzfgsTizEW0y3qLW5bki09LTMtV1uesXxrZW2VZDXfqtHqibWeNde6xLre+q4NzcbfJt+m1uaqLdHW0zbbdp1tux1q52aXaVdtd8ketXe3F9mvs+8YQRjhNUI8onbEDQeqA9uhyKHeocuR6RjpWOrY6Ph8pMXIlJHLRp4Z+cXJzSnHaYvTnVHao8JHlY5qHvXS2c6Z71ztfNWF5hLiMsulyeWFq72r0HW96003htsYt/luLW6f3T3cpe673Xs9LDxSPWo8bnjqeMZ4LvI860XwCvSa5XXY6723u3eh9z7vv3wcfLJ9dvg8GW09Wjh6y+huXzNfnu8m304/ll+q30a/Tn9Tf55/rf+DAPMAQcDWgMdsW3YWeyf7eaBToDTwYOBbjjdnBud4EBYUGlQe1BasHZwQvDb4fohZSEZIfUh/qFvotNDjYYSwiLBlYTe4Rlw+t47bH+4RPiO8NYIaERexNuJBpF2kNLJ5DDomfMyKMXejLKPEUY3RIJobvSL6Xox1TH7Mb2OJY2PGVo99FDsqdnrsmThG3OS4HXFv4gPjl8TfSbBJkCW0JGokTkisS3ybFJS0PKlz3MhxM8ZdSDZIFiU3pZBSElO2pgyMDx6/anzPBLcJZROuT7SeWDzx3CSDSTmTjkzWmMybvD+VkJqUuiP1Ey+aV8sbSOOm1aT18zn81fxnggDBSkGv0Fe4XPg43Td9efqTDN+MFRm9mf6ZlZl9Io5orehFVljWhqy32dHZ27K/5iTl7MlVy03NPSTWFmeLW/OM84rzOiT2kjJJZ753/qr8fmmEdGsBUjCxoKlQB27kL8psZD/Juor8iqqL3k1JnLK/WKtYXHxxqt3UhVMfl4SU/DINn8af1jLddPqc6V0z2DM2zURmps1smWU+a96sntmhs7fPoczJnvN7qVPp8tLXc5PmNs8zmjd7XvdPoT/Vl9HLpGU35vvM37AAXyBa0LbQZeGahV/KBeXnK5wqKis+LeIvOv/zqJ+rfv66OH1x2xL3JeuXEpeKl15f5r9s+3Kt5SXLu1eMWdGwkrWyfOXrVZNXnat0rdywmrJatrqzKrKqaY3FmqVrPq3NXHutOrB6T41hzcKat+sE6y6vD1i/e4PRhooNHzaKNt7cFLqpodaqtnIzcXPR5kdbErec+cXzl7qtBlsrtn7eJt7WuT12e2udR13dDsMdS+rRell9784JO9t3Be1q2u2we9Me5p6KvWCvbO/TX1N/vb4vYl/Lfs/9uw9YHqg5yDhY3oA0TG3ob8xs7GxKbuo4FH6opdmn+eBvjr9tO2x6uPqI7pElRylH5x39eqzk2MBxyfG+Exknulsmt9w5Oe7k1daxrW2nIk6dPR1y+uQZ9pljZ33PHj7nfe7Qec/zjRfcLzRcdLt48He33w+2ubc1XPK41NTu1d7cMbrj6GX/yyeuBF05fZV79cK1qGsd1xOu37wx4UbnTcHNJ7dybr24XXT7453Zdwl3y+9p3qu8b3i/9g/bP/Z0unce6Qrquvgg7sGdbn73s4cFDz/1zHtEe1T52ORx3RPnJ4d7Q3rbn45/2vNM8uxjX9mfWn/WPLd5fuCvgL8u9o/r73khffH15aJX+q+2vXZ93TIQM3D/Te6bj2/L3+m/2/7e8/2ZD0kfHn+c8on0qeqz7efmLxFf7n7N/fpVwpPyFFsBDFY0PR2Al9sAoCXDvQM8n1HGK89/ioIoz6wKBP4TVp4RFcUdgG0BACTMBiAS7lHWw2oJMRW28i18fABAXVyG6uBZTXGulBciPAdsdJSj9p7n4MeiPHN+F/ePLZCruoIf238BHo96syUNpmAAAACKZVhJZk1NACoAAAAIAAQBGgAFAAAAAQAAAD4BGwAFAAAAAQAAAEYBKAADAAAAAQACAACHaQAEAAAAAQAAAE4AAAAAAAAAkAAAAAEAAACQAAAAAQADkoYABwAAABIAAAB4oAIABAAAAAEAAABIoAMABAAAAAEAAABMAAAAAEFTQ0lJAAAAU2NyZWVuc2hvdPaclV8AAAAJcEhZcwAAFiUAABYlAUlSJPAAAAHUaVRYdFhNTDpjb20uYWRvYmUueG1wAAAAAAA8eDp4bXBtZXRhIHhtbG5zOng9ImFkb2JlOm5zOm1ldGEvIiB4OnhtcHRrPSJYTVAgQ29yZSA2LjAuMCI+CiAgIDxyZGY6UkRGIHhtbG5zOnJkZj0iaHR0cDovL3d3dy53My5vcmcvMTk5OS8wMi8yMi1yZGYtc3ludGF4LW5zIyI+CiAgICAgIDxyZGY6RGVzY3JpcHRpb24gcmRmOmFib3V0PSIiCiAgICAgICAgICAgIHhtbG5zOmV4aWY9Imh0dHA6Ly9ucy5hZG9iZS5jb20vZXhpZi8xLjAvIj4KICAgICAgICAgPGV4aWY6UGl4ZWxZRGltZW5zaW9uPjc2PC9leGlmOlBpeGVsWURpbWVuc2lvbj4KICAgICAgICAgPGV4aWY6UGl4ZWxYRGltZW5zaW9uPjcyPC9leGlmOlBpeGVsWERpbWVuc2lvbj4KICAgICAgICAgPGV4aWY6VXNlckNvbW1lbnQ+U2NyZWVuc2hvdDwvZXhpZjpVc2VyQ29tbWVudD4KICAgICAgPC9yZGY6RGVzY3JpcHRpb24+CiAgIDwvcmRmOlJERj4KPC94OnhtcG1ldGE+CnT7QmcAAAAcaURPVAAAAAIAAAAAAAAAJgAAACgAAAAmAAAAJgAABcoLNsyBAAAFlklEQVR4Aexaa2xVRRD+5tjy+EFAVB6tioCIWh9gfMRHNFHAyEMlSIkEUaI8KsYHIlYLNlgeTa1UVISCpfJDHlXUxBSESgEjJgrS+mhUGtsQsDUoBEhNIZAzzt5iuT1n95x7zz1t/XEnOememZ3Zud/umZ3ZLbEQkmREgJIAGbGJCJIAeeODJEBJgHwQ8BEnV1ASIB8EfMTJFdRZAPGPPwFHjkQebvwTaGwEGuQ5fdrHJR9xjx5AWn9QWhrQt688fUDp6cDgQT6KwcShryDe8w1QuQtcXR3Mo4BaNHIE1BM2UKEBxDt2gnfuBH75NeBPDEctbKASB+j4CfDKYvC+feH8wpCs0JPTQKMfSNhaYgAdPAh7xUrg9zpvR7p1A3r1BHr2AlJTvPv6SZtPASeOAzIxOHvWu7cAZAlQiVBggLj6B7AC59gx/fg3DQcNHwaSv+jXT98nQS7X1gJV4sfevUBdvdZaZPzZT4PUBAWgQABxTQ34tYX64YYMAY0dDbrrTr28HbisVlL5VnD5FuDoUfcIA6+AlSf+du/ulvlwAgFk58pgP9e4Td9xO6wXX3DzO4pz+DDswiLg0CHXiDR2DGja4y6+HyNugOxNHwFl8jgphO/daTLou52dA6jPz0G0IAc07EYH1/s1PoDUDD03x20xcyKsSRPd/E7kaFf5QPnUCgvi8io2gOS75t8OgHdUAhKco4nuuRv07DPRLHNbxQrZ+fiU7EQBiPpKsL/4otg0ZZezX18UGa+NgkwmDb0q8sQSk3wB4u0V4OI1bcZofenaFVb+EuDyy1pZ2oYsd7t0HVjSAfLbmrUGopi9ewNXDoY1YzpwoaQNHsS7doPfWaHvIaUKzZoOysjQy89xPQEyxpv/lCeMB01+1HMArpQMW6UDYVNKCqyFucDVQz0t24tkAqsMZU+XLqA5z4NuudlowwyQijcq2DU3m5WXF4EuTTfKueJL8KrVRnkYAmutrO6e5hzHd4Kuy2gB2uCMESD7g3XA5+UGNWFL9WwV5BvlXF8Pni8zHDDeGA07BGr2KXuegxv1evIk7GlPRTHcTZIcia69xi0QjhmgV+cDEpiN5LNzccUOWT3FRvUwBdayN4ABA4wmtTtaVG/KmgUacW8U53zTDNCEzPO9NC2aKQFu1EiNpIVlrykBvthmlIcpULuo2k1NZC97C1DHMAai8Q+DpkzWSoMDNG8u6LZbtUYVk5cWdFiFT1OngB560OzL2lIpQ7Ya5e0DkE9WymUfgzeVGZ0KU2DlvAKoothAvH4DePOnBqnEmXZZQT7Lmr/eAy5abnQqTIG1UnKdPpcYTfJ7q1qSXEOPYABlzZbz5L8MJgX1qY/Jsh5nlOPMGdgvZWsLR7NSAIn4YIkvXmQvkd32+/3GLtYTUsSOG6OVG2MQv/0uePdXWiXFjKnEMNVuRqvxCVjKjguK/ZNQe2YW8LfmGOTccF6fqBkgqbvU0jSSHEBZJYYSJFpJbjbsPMlmGxqiuYm35dzJyl/sa0cdqrFKeE2UmgoqehPUX+o8DRkBUn3tPHHAUZxG21AJmlea3tpXrnp4Yxm4To5m1fGsR3beqqNryHUPBsn1jtRRsZ4e+JVLkABtGbZ45YInQOpeK3LmrDscU8o3XA/KXaD7Kf8LHv/RAFYJb1OT1h+6fxRohk+W7fv/QTL79oaNwIFabWZNWTMlC71P60BnM+3V7wPbtrd1Qx27Ro47hoIyH2kr07x5ryCHAm+Rc9+SUgdXVpLkIZHDcZek8ximT4skbpHEr1gpLoCUUXvxUmB/lcu+tbljkkLXwBoGi3+s/HQQTcqMadVEq8UNUKRKn/tytI3Wtl/R2NqxHRv87XfggkL3CDHuek7FuAFSBviTz8Afrnfairx3Vkzipn9arn10FwriWdAw8C8AAAD//wOFSToAAAbASURBVN1aCYhVVRj+zn0z4q5JoyCIlToKjqWlFWRQabRQWkRKlEiEpYapmKa5ZSWj41aIJYktyqAmLWZaUakt7pWQ2UJphhoqKCaCZTP39H/X+WfOXV4Nvvtu4A9vzjnf+dfvnnvefeeOsSK4ALGLl8Bu+SzR0lzZC7jzDph+fRPnUwVPn4bdvgN2w0bgyO+Jrs2wB2HuGZw491+guVCC6NhWr4J9+528MWyrVjC9KmC6dgXatgHayKe0JK9+YybMn3/BnjoFnPoDdu9e4PsfgNraZNPWrWFGPQZzbb/k+UagBRFE/7xy9tXXGxEqY5Xu3WFGPAJz+WUFBS6YIEa3X26FfX8D8PMvBSWTlrG5dSB4W6FFi4JdpkKQZmE//wL2003Ad/sUyrQNiBFy0OWK1OKmSlB9Vjt3wd+0GTh0CDh2vB5OvdOsGVB2KQxvp5SJ0VyLQ5B6Z3v2LHD0KOzRY9Iegz13DnhzravR0B9yP3D4MLBtewPm9oQQ88BQIaUMpkN72LL2MM2FpCJK8QmKJG/nLYDdsTOCyvD22+DJpspvJL+yCtizJ64jiBk9EmbALYlzxQCzJUhuOX/chFgdpu81MFOeasDPnIGdOw+WX+FR6X0VvOlTo2jRxpkSxMeB4IEuUo6pqoTp0iWE2uPHA5Jw8LcQzoE3txLoGtaPKaUEZEaQlc3ajhkbe6gzN/aHGfdEYjl26zbYhS/E52Sv8obKfpWBZEfQ6jWwa9+KlWTkdjFy2+QTf/QY+SaUDd6Vbt3gzZntIkXrZ0aQP2EScPBguBB5XvGq5oSxyMhfWQ28uy6Cym22bCnQrl0MTxvIhqBzf8Mf/jDAr3hHzL2DYR6SJ95/k5Mn4Y8YGdMwz86E6dkzhqcNZEOQrJxgBUWy9xbOAzp3jqDxoX/fkBh4UREU/FZb9GK4yKZN4VWvCGN5Rhc/QUkbdPsyeC8vyUOJA584Af/RUQ5wvntRrSB//kJADrVCIs8xwfNMCIwPrPzssAsWxSa81bJ5l5bG8LSBTPag4Kl41+5w7o0laOkrsB9/Erat6Alv1swwVqRRNgQtfw124wfhEhpzi+0/AH/S5LCdjMygu2GGD4vhxQCyIWjdetgVK8P5N2KT9rmxy2FcVEzlbJjyblG4KONsCMq3jyyWnxEdOyYWZt9YCfve+tic6X8DzHj5yZKRZEIQDh+BP3Z8rKR8bxvsvn2wM2bF9AmYaU/D9OmdOFcMMBuCJHN/ohxnHPg1XEOP7vBmPxfGqLtsOfDhRzEccg7kyXlQlpIdQXw9VL0qVpuZOAHm+utCuL9GThyjp46dOsGrfB7gMWuGkhlBdv9+2ElT4qUlfGXbH3+CnTq9QZfvt54cn8lvr4ag53uZEcRwtmo+rBzoRyV4uTdwQBj++hvY3V/BtmwJb9BdgJD0f0i2BMmbUPtMfM+BkICp8rzDN7AinufB930YY4IxW74hZ1srZ9a5XC7AqUNdndO36FFbKtNW9TlWXY3BsWJu/EwJChKTd/o1m7cgx6IF8CWxoC+HYLlpU+A3b56XIBbAgvhxC3JxnWMs7bvz7JMoksw+CS8pKQn61FcSleTMCGLAIGk+HU+Wr+pgJCewShDHN98E7/FR9YURYhFaoHtltRDOEdeVpXF0ZXFMMqI4yaCoHf2oKLEcF5UgDepeGSZk5LeVla9yJYmrKNCRNicHYV5FRZA4i1RbJkt/LLampia46oqxpZCEUHF1JKgPJZIthThF7di6MYO+BG2gLlBP549eMSbhJshwHNfWHaXqmCR5THjWDNgePepvMy5/kkqhHZMmQWzrbZ1VogVGbXSlKAnBhWK8Or+K06f22aa+ggKnEpjFRIMxeUo9/tJS1Mj/GBElOX55OczMaTBNmpwnUYhxbQJi6/YM+tEi6U9vI/aVSObiFqu+aEucNvRBnB9irn3gX4BUVxDdMZAmqQGJuYkpbr/di1r52EvaAlf3Qa5DhyBZrhItOjB0/qitQkoc9d34aq/FJ8WnrRJDWyVL46e2ghiEzilagBtYk3eL4RVSXc5zrPb0FVxBKYB92qkuWxZQKgdmGoN2GoPzaq/+dE4J0Xjqk2P6Un21T4UgJUeTZRIaQIvT4jlH4ViT1OKpSx/86N6jhZEQ9cuiKNSnuL7cgom78WnvxtcYbnzau/ELJohJuIE1mCbHgEySY5VogUxIddSeY5LClqKFu7b0qTjtKNq68fVC6Lzrg/pufMbjvMYvmCAG1SQ1sLYaXOepq6L3OAuhHnVUj60ueU1eW86xTxvqUHTs2hOP+uVYcY3v2uqcG/8fjSrw8EqLoGwAAAAASUVORK5CYII=;" parent="1" vertex="1">
          <mxGeometry x="264.94" y="85" width="47.37" height="50" as="geometry" />
        </mxCell>
        <mxCell id="VgrEgSO6s5cVSUkasEul-53" value="Client" style="text;html=1;strokeColor=none;fillColor=none;align=left;verticalAlign=middle;whiteSpace=wrap;rounded=0;dashed=1;" parent="1" vertex="1">
          <mxGeometry x="312.31" y="100" width="60" height="30" as="geometry" />
        </mxCell>
        <mxCell id="VgrEgSO6s5cVSUkasEul-54" value="" style="shape=image;aspect=fixed;image=data:image/png,iVBORw0KGgoAAAANSUhEUgAAAEgAAABMCAYAAADOfPFRAAAMO2lDQ1BJQ0MgUHJvZmlsZQAASImVVwdYU8kWnluSkJCEEoiAlNCbINKLlBBaAAGpgo2QBAglhEAQsaOLCq5dRMGGrorY1gLIWhG7i2DvCyIqyrpYsJc3KaDrvvK9+b65899/zvznzLlz750BQOM4TyLJQTUByBUXSmNDA1njklNYpEeADOiwegFNHr9Awo6JiQSwDLZ/L2+uA0TeXnGQa/2z/78WLYGwgA8AEgNxmqCAnwvxAQDwGr5EWggAUc6bTymUyDGsQEcKA4R4gRxnKHGNHKcp8V6FTXwsB+JWANSoPJ40AwB6O+RZRfwMqEHvh9hJLBCJAdBgQeyXm5sngDgVYhtoI4FYru+Z9p1Oxt8004Y0ebyMIayci6KoBYkKJDm8qf9nOv53yc2RDfqwgpWaKQ2Llc8Z5u1mdl6EHFMh7hOnRUVDrA3xO5FAYQ8xSsmUhSUo7VFDfgEH5gwwIXYS8IIiIDaEOEScExWp4tPSRSFciOEKQYtFhdx4iPUgXiAsCI5T2WyU5sWqfKEN6VIOW8Wf5UkVfuW+7suyE9gq/ZeZQq5KH6OXZMYnQUyB2KJIlBgFMR1ix4LsuAiVzeiSTE7UoI1UFiuP3wLiWKE4NFCpjxWlS0NiVfbluQWD88U2Zoq4USq8rzAzPkyZH6yVz1PED+eCtQvF7IRBHWHBuMjBuQiEQcHKuWNPhOKEOJXOO0lhYKxyLE6R5MSo7HEzYU6onDeD2LWgKE41Fk8shAtSqY+nSwpj4pVx4iVZvPAYZTz4UhAJOCAIsIAM1jSQB7KAqK2vsQ/eKXtCAA9IQQYQAgcVMzgiSdEjhtc4UAL+hEgICobGBSp6haAI8p+HWOXVAaQreosUI7LBI4hzQQTIgfcyxSjxkLdE8BAyon9458HKh/HmwCrv//f8IPuNYUMmUsXIBj2yNAYticHEIGIYMYRoixvgfrgPHgmvAbA645641+A8vtkTHhE6CA8I1widhFuTRaXSH6IcAzqhfogqF2nf5wK3gppueCDuC9WhMs7EDYAD7gr9sHF/6NkNshxV3PKssH7Q/tsMvnsaKjuyExklDyMHkG1+HEm3o7sNqchz/X1+lLGmDeWbM9Tzo3/Od9kXwDbiR0tsAbYfO4OdwM5hh7FGwMKOYU3YReyIHA+troeK1TXoLVYRTzbUEf3D3+CTlWeywKneqdfpk7KvUFgs/0YDTp5kqlSUkVnIYsM/gpDFFfMdR7CcnZydAZD/X5Sfr1dMxX8DYZ7/xuUfB8CrHJIZ3zieOQCHHgHAePONM38JX5ulABxp58ukRUoOl18I8CuhAd80fWAMzIENnI8zcAc+IAAEg3AQDeJBMpgEo8+E61wKpoDpYA4oAxVgKVgF1oINYDPYDnaBfaARHAYnwGlwAbSDa+AOXD094BnoB2/ARwRBSAgNYSD6iAliidgjzogn4ocEI5FILJKMpCIZiBiRIdORuUgFshxZi2xC6pBfkUPICeQc0oHcQrqQXuQl8gHFUCqqgxqhVuhI1BNloxFoPDoRzUDz0RJ0HroYrUJr0Z1oA3oCvYBeQzvRZ+gABjB1jImZYg6YJ8bBorEULB2TYjOxcqwSq8V2Y83wOV/BOrE+7D1OxBk4C3eAKzgMT8D5eD4+E1+Er8W34w14K34F78L78S8EGsGQYE/wJnAJ4wgZhCmEMkIlYSvhIOEUfJd6CG+IRCKTaE30gO9iMjGLOI24iLiOuId4nNhB7CYOkEgkfZI9yZcUTeKRCkllpDWknaRjpMukHtI7NXU1EzVntRC1FDWxWqlapdoOtaNql9Ueq30ka5Ityd7kaLKAPJW8hLyF3Ey+RO4hf6RoUawpvpR4ShZlDqWKsptyinKX8kpdXd1M3Ut9rLpIfbZ6lfpe9bPqXervqdpUOyqHOoEqoy6mbqMep96ivqLRaFa0AFoKrZC2mFZHO0m7T3tHZ9Ad6Vy6gD6LXk1voF+mP9cga1hqsDUmaZRoVGrs17ik0adJ1rTS5GjyNGdqVmse0ryhOaDF0BqlFa2Vq7VIa4fWOa0n2iRtK+1gbYH2PO3N2ie1uxkYw5zBYfAZcxlbGKcYPTpEHWsdrk6WToXOLp02nX5dbV1X3UTdYt1q3SO6nUyMacXkMnOYS5j7mNeZH4YZDWMPEw5bOGz3sMvD3uoN1wvQE+qV6+3Ru6b3QZ+lH6yfrb9Mv1H/ngFuYGcw1mCKwXqDUwZ9w3WG+wznDy8fvm/4bUPU0M4w1nCa4WbDi4YDRsZGoUYSozVGJ436jJnGAcZZxiuNjxr3mjBM/ExEJitNjpk8Zemy2KwcVhWrldVvamgaZioz3WTaZvrRzNoswazUbI/ZPXOKuad5uvlK8xbzfgsTizEW0y3qLW5bki09LTMtV1uesXxrZW2VZDXfqtHqibWeNde6xLre+q4NzcbfJt+m1uaqLdHW0zbbdp1tux1q52aXaVdtd8ketXe3F9mvs+8YQRjhNUI8onbEDQeqA9uhyKHeocuR6RjpWOrY6Ph8pMXIlJHLRp4Z+cXJzSnHaYvTnVHao8JHlY5qHvXS2c6Z71ztfNWF5hLiMsulyeWFq72r0HW96003htsYt/luLW6f3T3cpe673Xs9LDxSPWo8bnjqeMZ4LvI860XwCvSa5XXY6723u3eh9z7vv3wcfLJ9dvg8GW09Wjh6y+huXzNfnu8m304/ll+q30a/Tn9Tf55/rf+DAPMAQcDWgMdsW3YWeyf7eaBToDTwYOBbjjdnBud4EBYUGlQe1BasHZwQvDb4fohZSEZIfUh/qFvotNDjYYSwiLBlYTe4Rlw+t47bH+4RPiO8NYIaERexNuJBpF2kNLJ5DDomfMyKMXejLKPEUY3RIJobvSL6Xox1TH7Mb2OJY2PGVo99FDsqdnrsmThG3OS4HXFv4gPjl8TfSbBJkCW0JGokTkisS3ybFJS0PKlz3MhxM8ZdSDZIFiU3pZBSElO2pgyMDx6/anzPBLcJZROuT7SeWDzx3CSDSTmTjkzWmMybvD+VkJqUuiP1Ey+aV8sbSOOm1aT18zn81fxnggDBSkGv0Fe4XPg43Td9efqTDN+MFRm9mf6ZlZl9Io5orehFVljWhqy32dHZ27K/5iTl7MlVy03NPSTWFmeLW/OM84rzOiT2kjJJZ753/qr8fmmEdGsBUjCxoKlQB27kL8psZD/Juor8iqqL3k1JnLK/WKtYXHxxqt3UhVMfl4SU/DINn8af1jLddPqc6V0z2DM2zURmps1smWU+a96sntmhs7fPoczJnvN7qVPp8tLXc5PmNs8zmjd7XvdPoT/Vl9HLpGU35vvM37AAXyBa0LbQZeGahV/KBeXnK5wqKis+LeIvOv/zqJ+rfv66OH1x2xL3JeuXEpeKl15f5r9s+3Kt5SXLu1eMWdGwkrWyfOXrVZNXnat0rdywmrJatrqzKrKqaY3FmqVrPq3NXHutOrB6T41hzcKat+sE6y6vD1i/e4PRhooNHzaKNt7cFLqpodaqtnIzcXPR5kdbErec+cXzl7qtBlsrtn7eJt7WuT12e2udR13dDsMdS+rRell9784JO9t3Be1q2u2we9Me5p6KvWCvbO/TX1N/vb4vYl/Lfs/9uw9YHqg5yDhY3oA0TG3ob8xs7GxKbuo4FH6opdmn+eBvjr9tO2x6uPqI7pElRylH5x39eqzk2MBxyfG+Exknulsmt9w5Oe7k1daxrW2nIk6dPR1y+uQZ9pljZ33PHj7nfe7Qec/zjRfcLzRcdLt48He33w+2ubc1XPK41NTu1d7cMbrj6GX/yyeuBF05fZV79cK1qGsd1xOu37wx4UbnTcHNJ7dybr24XXT7453Zdwl3y+9p3qu8b3i/9g/bP/Z0unce6Qrquvgg7sGdbn73s4cFDz/1zHtEe1T52ORx3RPnJ4d7Q3rbn45/2vNM8uxjX9mfWn/WPLd5fuCvgL8u9o/r73khffH15aJX+q+2vXZ93TIQM3D/Te6bj2/L3+m/2/7e8/2ZD0kfHn+c8on0qeqz7efmLxFf7n7N/fpVwpPyFFsBDFY0PR2Al9sAoCXDvQM8n1HGK89/ioIoz6wKBP4TVp4RFcUdgG0BACTMBiAS7lHWw2oJMRW28i18fABAXVyG6uBZTXGulBciPAdsdJSj9p7n4MeiPHN+F/ePLZCruoIf238BHo96syUNpmAAAACKZVhJZk1NACoAAAAIAAQBGgAFAAAAAQAAAD4BGwAFAAAAAQAAAEYBKAADAAAAAQACAACHaQAEAAAAAQAAAE4AAAAAAAAAkAAAAAEAAACQAAAAAQADkoYABwAAABIAAAB4oAIABAAAAAEAAABIoAMABAAAAAEAAABMAAAAAEFTQ0lJAAAAU2NyZWVuc2hvdPaclV8AAAAJcEhZcwAAFiUAABYlAUlSJPAAAAHUaVRYdFhNTDpjb20uYWRvYmUueG1wAAAAAAA8eDp4bXBtZXRhIHhtbG5zOng9ImFkb2JlOm5zOm1ldGEvIiB4OnhtcHRrPSJYTVAgQ29yZSA2LjAuMCI+CiAgIDxyZGY6UkRGIHhtbG5zOnJkZj0iaHR0cDovL3d3dy53My5vcmcvMTk5OS8wMi8yMi1yZGYtc3ludGF4LW5zIyI+CiAgICAgIDxyZGY6RGVzY3JpcHRpb24gcmRmOmFib3V0PSIiCiAgICAgICAgICAgIHhtbG5zOmV4aWY9Imh0dHA6Ly9ucy5hZG9iZS5jb20vZXhpZi8xLjAvIj4KICAgICAgICAgPGV4aWY6UGl4ZWxZRGltZW5zaW9uPjc2PC9leGlmOlBpeGVsWURpbWVuc2lvbj4KICAgICAgICAgPGV4aWY6UGl4ZWxYRGltZW5zaW9uPjcyPC9leGlmOlBpeGVsWERpbWVuc2lvbj4KICAgICAgICAgPGV4aWY6VXNlckNvbW1lbnQ+U2NyZWVuc2hvdDwvZXhpZjpVc2VyQ29tbWVudD4KICAgICAgPC9yZGY6RGVzY3JpcHRpb24+CiAgIDwvcmRmOlJERj4KPC94OnhtcG1ldGE+CnT7QmcAAAAcaURPVAAAAAIAAAAAAAAAJgAAACgAAAAmAAAAJgAABcoLNsyBAAAFlklEQVR4Aexaa2xVRRD+5tjy+EFAVB6tioCIWh9gfMRHNFHAyEMlSIkEUaI8KsYHIlYLNlgeTa1UVISCpfJDHlXUxBSESgEjJgrS+mhUGtsQsDUoBEhNIZAzzt5iuT1n95x7zz1t/XEnOememZ3Zud/umZ3ZLbEQkmREgJIAGbGJCJIAeeODJEBJgHwQ8BEnV1ASIB8EfMTJFdRZAPGPPwFHjkQebvwTaGwEGuQ5fdrHJR9xjx5AWn9QWhrQt688fUDp6cDgQT6KwcShryDe8w1QuQtcXR3Mo4BaNHIE1BM2UKEBxDt2gnfuBH75NeBPDEctbKASB+j4CfDKYvC+feH8wpCs0JPTQKMfSNhaYgAdPAh7xUrg9zpvR7p1A3r1BHr2AlJTvPv6SZtPASeOAzIxOHvWu7cAZAlQiVBggLj6B7AC59gx/fg3DQcNHwaSv+jXT98nQS7X1gJV4sfevUBdvdZaZPzZT4PUBAWgQABxTQ34tYX64YYMAY0dDbrrTr28HbisVlL5VnD5FuDoUfcIA6+AlSf+du/ulvlwAgFk58pgP9e4Td9xO6wXX3DzO4pz+DDswiLg0CHXiDR2DGja4y6+HyNugOxNHwFl8jgphO/daTLou52dA6jPz0G0IAc07EYH1/s1PoDUDD03x20xcyKsSRPd/E7kaFf5QPnUCgvi8io2gOS75t8OgHdUAhKco4nuuRv07DPRLHNbxQrZ+fiU7EQBiPpKsL/4otg0ZZezX18UGa+NgkwmDb0q8sQSk3wB4u0V4OI1bcZofenaFVb+EuDyy1pZ2oYsd7t0HVjSAfLbmrUGopi9ewNXDoY1YzpwoaQNHsS7doPfWaHvIaUKzZoOysjQy89xPQEyxpv/lCeMB01+1HMArpQMW6UDYVNKCqyFucDVQz0t24tkAqsMZU+XLqA5z4NuudlowwyQijcq2DU3m5WXF4EuTTfKueJL8KrVRnkYAmutrO6e5hzHd4Kuy2gB2uCMESD7g3XA5+UGNWFL9WwV5BvlXF8Pni8zHDDeGA07BGr2KXuegxv1evIk7GlPRTHcTZIcia69xi0QjhmgV+cDEpiN5LNzccUOWT3FRvUwBdayN4ABA4wmtTtaVG/KmgUacW8U53zTDNCEzPO9NC2aKQFu1EiNpIVlrykBvthmlIcpULuo2k1NZC97C1DHMAai8Q+DpkzWSoMDNG8u6LZbtUYVk5cWdFiFT1OngB560OzL2lIpQ7Ya5e0DkE9WymUfgzeVGZ0KU2DlvAKoothAvH4DePOnBqnEmXZZQT7Lmr/eAy5abnQqTIG1UnKdPpcYTfJ7q1qSXEOPYABlzZbz5L8MJgX1qY/Jsh5nlOPMGdgvZWsLR7NSAIn4YIkvXmQvkd32+/3GLtYTUsSOG6OVG2MQv/0uePdXWiXFjKnEMNVuRqvxCVjKjguK/ZNQe2YW8LfmGOTccF6fqBkgqbvU0jSSHEBZJYYSJFpJbjbsPMlmGxqiuYm35dzJyl/sa0cdqrFKeE2UmgoqehPUX+o8DRkBUn3tPHHAUZxG21AJmlea3tpXrnp4Yxm4To5m1fGsR3beqqNryHUPBsn1jtRRsZ4e+JVLkABtGbZ45YInQOpeK3LmrDscU8o3XA/KXaD7Kf8LHv/RAFYJb1OT1h+6fxRohk+W7fv/QTL79oaNwIFabWZNWTMlC71P60BnM+3V7wPbtrd1Qx27Ro47hoIyH2kr07x5ryCHAm+Rc9+SUgdXVpLkIZHDcZek8ximT4skbpHEr1gpLoCUUXvxUmB/lcu+tbljkkLXwBoGi3+s/HQQTcqMadVEq8UNUKRKn/tytI3Wtl/R2NqxHRv87XfggkL3CDHuek7FuAFSBviTz8Afrnfairx3Vkzipn9arn10FwriWdAw8C8AAAD//wOFSToAAAbASURBVN1aCYhVVRj+zn0z4q5JoyCIlToKjqWlFWRQabRQWkRKlEiEpYapmKa5ZSWj41aIJYktyqAmLWZaUakt7pWQ2UJphhoqKCaCZTP39H/X+WfOXV4Nvvtu4A9vzjnf+dfvnnvefeeOsSK4ALGLl8Bu+SzR0lzZC7jzDph+fRPnUwVPn4bdvgN2w0bgyO+Jrs2wB2HuGZw491+guVCC6NhWr4J9+528MWyrVjC9KmC6dgXatgHayKe0JK9+YybMn3/BnjoFnPoDdu9e4PsfgNraZNPWrWFGPQZzbb/k+UagBRFE/7xy9tXXGxEqY5Xu3WFGPAJz+WUFBS6YIEa3X26FfX8D8PMvBSWTlrG5dSB4W6FFi4JdpkKQZmE//wL2003Ad/sUyrQNiBFy0OWK1OKmSlB9Vjt3wd+0GTh0CDh2vB5OvdOsGVB2KQxvp5SJ0VyLQ5B6Z3v2LHD0KOzRY9Iegz13DnhzravR0B9yP3D4MLBtewPm9oQQ88BQIaUMpkN72LL2MM2FpCJK8QmKJG/nLYDdsTOCyvD22+DJpspvJL+yCtizJ64jiBk9EmbALYlzxQCzJUhuOX/chFgdpu81MFOeasDPnIGdOw+WX+FR6X0VvOlTo2jRxpkSxMeB4IEuUo6pqoTp0iWE2uPHA5Jw8LcQzoE3txLoGtaPKaUEZEaQlc3ajhkbe6gzN/aHGfdEYjl26zbYhS/E52Sv8obKfpWBZEfQ6jWwa9+KlWTkdjFy2+QTf/QY+SaUDd6Vbt3gzZntIkXrZ0aQP2EScPBguBB5XvGq5oSxyMhfWQ28uy6Cym22bCnQrl0MTxvIhqBzf8Mf/jDAr3hHzL2DYR6SJ95/k5Mn4Y8YGdMwz86E6dkzhqcNZEOQrJxgBUWy9xbOAzp3jqDxoX/fkBh4UREU/FZb9GK4yKZN4VWvCGN5Rhc/QUkbdPsyeC8vyUOJA584Af/RUQ5wvntRrSB//kJADrVCIs8xwfNMCIwPrPzssAsWxSa81bJ5l5bG8LSBTPag4Kl41+5w7o0laOkrsB9/Erat6Alv1swwVqRRNgQtfw124wfhEhpzi+0/AH/S5LCdjMygu2GGD4vhxQCyIWjdetgVK8P5N2KT9rmxy2FcVEzlbJjyblG4KONsCMq3jyyWnxEdOyYWZt9YCfve+tic6X8DzHj5yZKRZEIQDh+BP3Z8rKR8bxvsvn2wM2bF9AmYaU/D9OmdOFcMMBuCJHN/ohxnHPg1XEOP7vBmPxfGqLtsOfDhRzEccg7kyXlQlpIdQXw9VL0qVpuZOAHm+utCuL9GThyjp46dOsGrfB7gMWuGkhlBdv9+2ElT4qUlfGXbH3+CnTq9QZfvt54cn8lvr4ag53uZEcRwtmo+rBzoRyV4uTdwQBj++hvY3V/BtmwJb9BdgJD0f0i2BMmbUPtMfM+BkICp8rzDN7AinufB930YY4IxW74hZ1srZ9a5XC7AqUNdndO36FFbKtNW9TlWXY3BsWJu/EwJChKTd/o1m7cgx6IF8CWxoC+HYLlpU+A3b56XIBbAgvhxC3JxnWMs7bvz7JMoksw+CS8pKQn61FcSleTMCGLAIGk+HU+Wr+pgJCewShDHN98E7/FR9YURYhFaoHtltRDOEdeVpXF0ZXFMMqI4yaCoHf2oKLEcF5UgDepeGSZk5LeVla9yJYmrKNCRNicHYV5FRZA4i1RbJkt/LLampia46oqxpZCEUHF1JKgPJZIthThF7di6MYO+BG2gLlBP549eMSbhJshwHNfWHaXqmCR5THjWDNgePepvMy5/kkqhHZMmQWzrbZ1VogVGbXSlKAnBhWK8Or+K06f22aa+ggKnEpjFRIMxeUo9/tJS1Mj/GBElOX55OczMaTBNmpwnUYhxbQJi6/YM+tEi6U9vI/aVSObiFqu+aEucNvRBnB9irn3gX4BUVxDdMZAmqQGJuYkpbr/di1r52EvaAlf3Qa5DhyBZrhItOjB0/qitQkoc9d34aq/FJ8WnrRJDWyVL46e2ghiEzilagBtYk3eL4RVSXc5zrPb0FVxBKYB92qkuWxZQKgdmGoN2GoPzaq/+dE4J0Xjqk2P6Un21T4UgJUeTZRIaQIvT4jlH4ViT1OKpSx/86N6jhZEQ9cuiKNSnuL7cgom78WnvxtcYbnzau/ELJohJuIE1mCbHgEySY5VogUxIddSeY5LClqKFu7b0qTjtKNq68fVC6Lzrg/pufMbjvMYvmCAG1SQ1sLYaXOepq6L3OAuhHnVUj60ueU1eW86xTxvqUHTs2hOP+uVYcY3v2uqcG/8fjSrw8EqLoGwAAAAASUVORK5CYII=;" parent="1" vertex="1">
          <mxGeometry x="389" y="85" width="47.37" height="50" as="geometry" />
        </mxCell>
        <mxCell id="VgrEgSO6s5cVSUkasEul-55" value="Client" style="text;html=1;strokeColor=none;fillColor=none;align=left;verticalAlign=middle;whiteSpace=wrap;rounded=0;dashed=1;" parent="1" vertex="1">
          <mxGeometry x="436.37" y="100" width="60" height="30" as="geometry" />
        </mxCell>
        <mxCell id="VgrEgSO6s5cVSUkasEul-57" value="http / https" style="text;html=1;strokeColor=none;fillColor=none;align=center;verticalAlign=middle;whiteSpace=wrap;rounded=0;dashed=1;" parent="1" vertex="1">
          <mxGeometry x="344" y="204" width="60" height="30" as="geometry" />
        </mxCell>
        <mxCell id="VgrEgSO6s5cVSUkasEul-62" value="应用层" style="text;html=1;strokeColor=none;fillColor=none;align=left;verticalAlign=middle;whiteSpace=wrap;rounded=0;dashed=1;" parent="1" vertex="1">
          <mxGeometry x="97" y="230" width="80" height="30" as="geometry" />
        </mxCell>
        <mxCell id="VgrEgSO6s5cVSUkasEul-64" value="客户端" style="text;html=1;strokeColor=none;fillColor=none;align=left;verticalAlign=middle;whiteSpace=wrap;rounded=0;dashed=1;" parent="1" vertex="1">
          <mxGeometry x="98" y="80" width="80" height="30" as="geometry" />
        </mxCell>
        <mxCell id="pRpbqJPYh5tRWzyOHzXr-1" value="" style="dashed=0;outlineConnect=0;html=1;align=center;labelPosition=center;verticalLabelPosition=bottom;verticalAlign=top;shape=mxgraph.weblogos.chrome;strokeColor=#000000;fillColor=#FFFFFF;" parent="1" vertex="1">
          <mxGeometry x="919" y="88" width="41" height="40" as="geometry" />
        </mxCell>
        <mxCell id="pRpbqJPYh5tRWzyOHzXr-2" value="Console" style="text;html=1;strokeColor=none;fillColor=none;align=left;verticalAlign=middle;whiteSpace=wrap;rounded=0;dashed=1;" parent="1" vertex="1">
          <mxGeometry x="970" y="93" width="60" height="30" as="geometry" />
        </mxCell>
        <mxCell id="pRpbqJPYh5tRWzyOHzXr-3" value="" style="shape=image;aspect=fixed;image=data:image/png,iVBORw0KGgoAAAANSUhEUgAAAEgAAABMCAYAAADOfPFRAAAMO2lDQ1BJQ0MgUHJvZmlsZQAASImVVwdYU8kWnluSkJCEEoiAlNCbINKLlBBaAAGpgo2QBAglhEAQsaOLCq5dRMGGrorY1gLIWhG7i2DvCyIqyrpYsJc3KaDrvvK9+b65899/zvznzLlz750BQOM4TyLJQTUByBUXSmNDA1njklNYpEeADOiwegFNHr9Awo6JiQSwDLZ/L2+uA0TeXnGQa/2z/78WLYGwgA8AEgNxmqCAnwvxAQDwGr5EWggAUc6bTymUyDGsQEcKA4R4gRxnKHGNHKcp8V6FTXwsB+JWANSoPJ40AwB6O+RZRfwMqEHvh9hJLBCJAdBgQeyXm5sngDgVYhtoI4FYru+Z9p1Oxt8004Y0ebyMIayci6KoBYkKJDm8qf9nOv53yc2RDfqwgpWaKQ2Llc8Z5u1mdl6EHFMh7hOnRUVDrA3xO5FAYQ8xSsmUhSUo7VFDfgEH5gwwIXYS8IIiIDaEOEScExWp4tPSRSFciOEKQYtFhdx4iPUgXiAsCI5T2WyU5sWqfKEN6VIOW8Wf5UkVfuW+7suyE9gq/ZeZQq5KH6OXZMYnQUyB2KJIlBgFMR1ix4LsuAiVzeiSTE7UoI1UFiuP3wLiWKE4NFCpjxWlS0NiVfbluQWD88U2Zoq4USq8rzAzPkyZH6yVz1PED+eCtQvF7IRBHWHBuMjBuQiEQcHKuWNPhOKEOJXOO0lhYKxyLE6R5MSo7HEzYU6onDeD2LWgKE41Fk8shAtSqY+nSwpj4pVx4iVZvPAYZTz4UhAJOCAIsIAM1jSQB7KAqK2vsQ/eKXtCAA9IQQYQAgcVMzgiSdEjhtc4UAL+hEgICobGBSp6haAI8p+HWOXVAaQreosUI7LBI4hzQQTIgfcyxSjxkLdE8BAyon9458HKh/HmwCrv//f8IPuNYUMmUsXIBj2yNAYticHEIGIYMYRoixvgfrgPHgmvAbA645641+A8vtkTHhE6CA8I1widhFuTRaXSH6IcAzqhfogqF2nf5wK3gppueCDuC9WhMs7EDYAD7gr9sHF/6NkNshxV3PKssH7Q/tsMvnsaKjuyExklDyMHkG1+HEm3o7sNqchz/X1+lLGmDeWbM9Tzo3/Od9kXwDbiR0tsAbYfO4OdwM5hh7FGwMKOYU3YReyIHA+troeK1TXoLVYRTzbUEf3D3+CTlWeywKneqdfpk7KvUFgs/0YDTp5kqlSUkVnIYsM/gpDFFfMdR7CcnZydAZD/X5Sfr1dMxX8DYZ7/xuUfB8CrHJIZ3zieOQCHHgHAePONM38JX5ulABxp58ukRUoOl18I8CuhAd80fWAMzIENnI8zcAc+IAAEg3AQDeJBMpgEo8+E61wKpoDpYA4oAxVgKVgF1oINYDPYDnaBfaARHAYnwGlwAbSDa+AOXD094BnoB2/ARwRBSAgNYSD6iAliidgjzogn4ocEI5FILJKMpCIZiBiRIdORuUgFshxZi2xC6pBfkUPICeQc0oHcQrqQXuQl8gHFUCqqgxqhVuhI1BNloxFoPDoRzUDz0RJ0HroYrUJr0Z1oA3oCvYBeQzvRZ+gABjB1jImZYg6YJ8bBorEULB2TYjOxcqwSq8V2Y83wOV/BOrE+7D1OxBk4C3eAKzgMT8D5eD4+E1+Er8W34w14K34F78L78S8EGsGQYE/wJnAJ4wgZhCmEMkIlYSvhIOEUfJd6CG+IRCKTaE30gO9iMjGLOI24iLiOuId4nNhB7CYOkEgkfZI9yZcUTeKRCkllpDWknaRjpMukHtI7NXU1EzVntRC1FDWxWqlapdoOtaNql9Ueq30ka5Ityd7kaLKAPJW8hLyF3Ey+RO4hf6RoUawpvpR4ShZlDqWKsptyinKX8kpdXd1M3Ut9rLpIfbZ6lfpe9bPqXervqdpUOyqHOoEqoy6mbqMep96ivqLRaFa0AFoKrZC2mFZHO0m7T3tHZ9Ad6Vy6gD6LXk1voF+mP9cga1hqsDUmaZRoVGrs17ik0adJ1rTS5GjyNGdqVmse0ryhOaDF0BqlFa2Vq7VIa4fWOa0n2iRtK+1gbYH2PO3N2ie1uxkYw5zBYfAZcxlbGKcYPTpEHWsdrk6WToXOLp02nX5dbV1X3UTdYt1q3SO6nUyMacXkMnOYS5j7mNeZH4YZDWMPEw5bOGz3sMvD3uoN1wvQE+qV6+3Ru6b3QZ+lH6yfrb9Mv1H/ngFuYGcw1mCKwXqDUwZ9w3WG+wznDy8fvm/4bUPU0M4w1nCa4WbDi4YDRsZGoUYSozVGJ436jJnGAcZZxiuNjxr3mjBM/ExEJitNjpk8Zemy2KwcVhWrldVvamgaZioz3WTaZvrRzNoswazUbI/ZPXOKuad5uvlK8xbzfgsTizEW0y3qLW5bki09LTMtV1uesXxrZW2VZDXfqtHqibWeNde6xLre+q4NzcbfJt+m1uaqLdHW0zbbdp1tux1q52aXaVdtd8ketXe3F9mvs+8YQRjhNUI8onbEDQeqA9uhyKHeocuR6RjpWOrY6Ph8pMXIlJHLRp4Z+cXJzSnHaYvTnVHao8JHlY5qHvXS2c6Z71ztfNWF5hLiMsulyeWFq72r0HW96003htsYt/luLW6f3T3cpe673Xs9LDxSPWo8bnjqeMZ4LvI860XwCvSa5XXY6723u3eh9z7vv3wcfLJ9dvg8GW09Wjh6y+huXzNfnu8m304/ll+q30a/Tn9Tf55/rf+DAPMAQcDWgMdsW3YWeyf7eaBToDTwYOBbjjdnBud4EBYUGlQe1BasHZwQvDb4fohZSEZIfUh/qFvotNDjYYSwiLBlYTe4Rlw+t47bH+4RPiO8NYIaERexNuJBpF2kNLJ5DDomfMyKMXejLKPEUY3RIJobvSL6Xox1TH7Mb2OJY2PGVo99FDsqdnrsmThG3OS4HXFv4gPjl8TfSbBJkCW0JGokTkisS3ybFJS0PKlz3MhxM8ZdSDZIFiU3pZBSElO2pgyMDx6/anzPBLcJZROuT7SeWDzx3CSDSTmTjkzWmMybvD+VkJqUuiP1Ey+aV8sbSOOm1aT18zn81fxnggDBSkGv0Fe4XPg43Td9efqTDN+MFRm9mf6ZlZl9Io5orehFVljWhqy32dHZ27K/5iTl7MlVy03NPSTWFmeLW/OM84rzOiT2kjJJZ753/qr8fmmEdGsBUjCxoKlQB27kL8psZD/Juor8iqqL3k1JnLK/WKtYXHxxqt3UhVMfl4SU/DINn8af1jLddPqc6V0z2DM2zURmps1smWU+a96sntmhs7fPoczJnvN7qVPp8tLXc5PmNs8zmjd7XvdPoT/Vl9HLpGU35vvM37AAXyBa0LbQZeGahV/KBeXnK5wqKis+LeIvOv/zqJ+rfv66OH1x2xL3JeuXEpeKl15f5r9s+3Kt5SXLu1eMWdGwkrWyfOXrVZNXnat0rdywmrJatrqzKrKqaY3FmqVrPq3NXHutOrB6T41hzcKat+sE6y6vD1i/e4PRhooNHzaKNt7cFLqpodaqtnIzcXPR5kdbErec+cXzl7qtBlsrtn7eJt7WuT12e2udR13dDsMdS+rRell9784JO9t3Be1q2u2we9Me5p6KvWCvbO/TX1N/vb4vYl/Lfs/9uw9YHqg5yDhY3oA0TG3ob8xs7GxKbuo4FH6opdmn+eBvjr9tO2x6uPqI7pElRylH5x39eqzk2MBxyfG+Exknulsmt9w5Oe7k1daxrW2nIk6dPR1y+uQZ9pljZ33PHj7nfe7Qec/zjRfcLzRcdLt48He33w+2ubc1XPK41NTu1d7cMbrj6GX/yyeuBF05fZV79cK1qGsd1xOu37wx4UbnTcHNJ7dybr24XXT7453Zdwl3y+9p3qu8b3i/9g/bP/Z0unce6Qrquvgg7sGdbn73s4cFDz/1zHtEe1T52ORx3RPnJ4d7Q3rbn45/2vNM8uxjX9mfWn/WPLd5fuCvgL8u9o/r73khffH15aJX+q+2vXZ93TIQM3D/Te6bj2/L3+m/2/7e8/2ZD0kfHn+c8on0qeqz7efmLxFf7n7N/fpVwpPyFFsBDFY0PR2Al9sAoCXDvQM8n1HGK89/ioIoz6wKBP4TVp4RFcUdgG0BACTMBiAS7lHWw2oJMRW28i18fABAXVyG6uBZTXGulBciPAdsdJSj9p7n4MeiPHN+F/ePLZCruoIf238BHo96syUNpmAAAACKZVhJZk1NACoAAAAIAAQBGgAFAAAAAQAAAD4BGwAFAAAAAQAAAEYBKAADAAAAAQACAACHaQAEAAAAAQAAAE4AAAAAAAAAkAAAAAEAAACQAAAAAQADkoYABwAAABIAAAB4oAIABAAAAAEAAABIoAMABAAAAAEAAABMAAAAAEFTQ0lJAAAAU2NyZWVuc2hvdPaclV8AAAAJcEhZcwAAFiUAABYlAUlSJPAAAAHUaVRYdFhNTDpjb20uYWRvYmUueG1wAAAAAAA8eDp4bXBtZXRhIHhtbG5zOng9ImFkb2JlOm5zOm1ldGEvIiB4OnhtcHRrPSJYTVAgQ29yZSA2LjAuMCI+CiAgIDxyZGY6UkRGIHhtbG5zOnJkZj0iaHR0cDovL3d3dy53My5vcmcvMTk5OS8wMi8yMi1yZGYtc3ludGF4LW5zIyI+CiAgICAgIDxyZGY6RGVzY3JpcHRpb24gcmRmOmFib3V0PSIiCiAgICAgICAgICAgIHhtbG5zOmV4aWY9Imh0dHA6Ly9ucy5hZG9iZS5jb20vZXhpZi8xLjAvIj4KICAgICAgICAgPGV4aWY6UGl4ZWxZRGltZW5zaW9uPjc2PC9leGlmOlBpeGVsWURpbWVuc2lvbj4KICAgICAgICAgPGV4aWY6UGl4ZWxYRGltZW5zaW9uPjcyPC9leGlmOlBpeGVsWERpbWVuc2lvbj4KICAgICAgICAgPGV4aWY6VXNlckNvbW1lbnQ+U2NyZWVuc2hvdDwvZXhpZjpVc2VyQ29tbWVudD4KICAgICAgPC9yZGY6RGVzY3JpcHRpb24+CiAgIDwvcmRmOlJERj4KPC94OnhtcG1ldGE+CnT7QmcAAAAcaURPVAAAAAIAAAAAAAAAJgAAACgAAAAmAAAAJgAABcoLNsyBAAAFlklEQVR4Aexaa2xVRRD+5tjy+EFAVB6tioCIWh9gfMRHNFHAyEMlSIkEUaI8KsYHIlYLNlgeTa1UVISCpfJDHlXUxBSESgEjJgrS+mhUGtsQsDUoBEhNIZAzzt5iuT1n95x7zz1t/XEnOememZ3Zud/umZ3ZLbEQkmREgJIAGbGJCJIAeeODJEBJgHwQ8BEnV1ASIB8EfMTJFdRZAPGPPwFHjkQebvwTaGwEGuQ5fdrHJR9xjx5AWn9QWhrQt688fUDp6cDgQT6KwcShryDe8w1QuQtcXR3Mo4BaNHIE1BM2UKEBxDt2gnfuBH75NeBPDEctbKASB+j4CfDKYvC+feH8wpCs0JPTQKMfSNhaYgAdPAh7xUrg9zpvR7p1A3r1BHr2AlJTvPv6SZtPASeOAzIxOHvWu7cAZAlQiVBggLj6B7AC59gx/fg3DQcNHwaSv+jXT98nQS7X1gJV4sfevUBdvdZaZPzZT4PUBAWgQABxTQ34tYX64YYMAY0dDbrrTr28HbisVlL5VnD5FuDoUfcIA6+AlSf+du/ulvlwAgFk58pgP9e4Td9xO6wXX3DzO4pz+DDswiLg0CHXiDR2DGja4y6+HyNugOxNHwFl8jgphO/daTLou52dA6jPz0G0IAc07EYH1/s1PoDUDD03x20xcyKsSRPd/E7kaFf5QPnUCgvi8io2gOS75t8OgHdUAhKco4nuuRv07DPRLHNbxQrZ+fiU7EQBiPpKsL/4otg0ZZezX18UGa+NgkwmDb0q8sQSk3wB4u0V4OI1bcZofenaFVb+EuDyy1pZ2oYsd7t0HVjSAfLbmrUGopi9ewNXDoY1YzpwoaQNHsS7doPfWaHvIaUKzZoOysjQy89xPQEyxpv/lCeMB01+1HMArpQMW6UDYVNKCqyFucDVQz0t24tkAqsMZU+XLqA5z4NuudlowwyQijcq2DU3m5WXF4EuTTfKueJL8KrVRnkYAmutrO6e5hzHd4Kuy2gB2uCMESD7g3XA5+UGNWFL9WwV5BvlXF8Pni8zHDDeGA07BGr2KXuegxv1evIk7GlPRTHcTZIcia69xi0QjhmgV+cDEpiN5LNzccUOWT3FRvUwBdayN4ABA4wmtTtaVG/KmgUacW8U53zTDNCEzPO9NC2aKQFu1EiNpIVlrykBvthmlIcpULuo2k1NZC97C1DHMAai8Q+DpkzWSoMDNG8u6LZbtUYVk5cWdFiFT1OngB560OzL2lIpQ7Ya5e0DkE9WymUfgzeVGZ0KU2DlvAKoothAvH4DePOnBqnEmXZZQT7Lmr/eAy5abnQqTIG1UnKdPpcYTfJ7q1qSXEOPYABlzZbz5L8MJgX1qY/Jsh5nlOPMGdgvZWsLR7NSAIn4YIkvXmQvkd32+/3GLtYTUsSOG6OVG2MQv/0uePdXWiXFjKnEMNVuRqvxCVjKjguK/ZNQe2YW8LfmGOTccF6fqBkgqbvU0jSSHEBZJYYSJFpJbjbsPMlmGxqiuYm35dzJyl/sa0cdqrFKeE2UmgoqehPUX+o8DRkBUn3tPHHAUZxG21AJmlea3tpXrnp4Yxm4To5m1fGsR3beqqNryHUPBsn1jtRRsZ4e+JVLkABtGbZ45YInQOpeK3LmrDscU8o3XA/KXaD7Kf8LHv/RAFYJb1OT1h+6fxRohk+W7fv/QTL79oaNwIFabWZNWTMlC71P60BnM+3V7wPbtrd1Qx27Ro47hoIyH2kr07x5ryCHAm+Rc9+SUgdXVpLkIZHDcZek8ximT4skbpHEr1gpLoCUUXvxUmB/lcu+tbljkkLXwBoGi3+s/HQQTcqMadVEq8UNUKRKn/tytI3Wtl/R2NqxHRv87XfggkL3CDHuek7FuAFSBviTz8Afrnfairx3Vkzipn9arn10FwriWdAw8C8AAAD//wOFSToAAAbASURBVN1aCYhVVRj+zn0z4q5JoyCIlToKjqWlFWRQabRQWkRKlEiEpYapmKa5ZSWj41aIJYktyqAmLWZaUakt7pWQ2UJphhoqKCaCZTP39H/X+WfOXV4Nvvtu4A9vzjnf+dfvnnvefeeOsSK4ALGLl8Bu+SzR0lzZC7jzDph+fRPnUwVPn4bdvgN2w0bgyO+Jrs2wB2HuGZw491+guVCC6NhWr4J9+528MWyrVjC9KmC6dgXatgHayKe0JK9+YybMn3/BnjoFnPoDdu9e4PsfgNraZNPWrWFGPQZzbb/k+UagBRFE/7xy9tXXGxEqY5Xu3WFGPAJz+WUFBS6YIEa3X26FfX8D8PMvBSWTlrG5dSB4W6FFi4JdpkKQZmE//wL2003Ad/sUyrQNiBFy0OWK1OKmSlB9Vjt3wd+0GTh0CDh2vB5OvdOsGVB2KQxvp5SJ0VyLQ5B6Z3v2LHD0KOzRY9Iegz13DnhzravR0B9yP3D4MLBtewPm9oQQ88BQIaUMpkN72LL2MM2FpCJK8QmKJG/nLYDdsTOCyvD22+DJpspvJL+yCtizJ64jiBk9EmbALYlzxQCzJUhuOX/chFgdpu81MFOeasDPnIGdOw+WX+FR6X0VvOlTo2jRxpkSxMeB4IEuUo6pqoTp0iWE2uPHA5Jw8LcQzoE3txLoGtaPKaUEZEaQlc3ajhkbe6gzN/aHGfdEYjl26zbYhS/E52Sv8obKfpWBZEfQ6jWwa9+KlWTkdjFy2+QTf/QY+SaUDd6Vbt3gzZntIkXrZ0aQP2EScPBguBB5XvGq5oSxyMhfWQ28uy6Cym22bCnQrl0MTxvIhqBzf8Mf/jDAr3hHzL2DYR6SJ95/k5Mn4Y8YGdMwz86E6dkzhqcNZEOQrJxgBUWy9xbOAzp3jqDxoX/fkBh4UREU/FZb9GK4yKZN4VWvCGN5Rhc/QUkbdPsyeC8vyUOJA584Af/RUQ5wvntRrSB//kJADrVCIs8xwfNMCIwPrPzssAsWxSa81bJ5l5bG8LSBTPag4Kl41+5w7o0laOkrsB9/Erat6Alv1swwVqRRNgQtfw124wfhEhpzi+0/AH/S5LCdjMygu2GGD4vhxQCyIWjdetgVK8P5N2KT9rmxy2FcVEzlbJjyblG4KONsCMq3jyyWnxEdOyYWZt9YCfve+tic6X8DzHj5yZKRZEIQDh+BP3Z8rKR8bxvsvn2wM2bF9AmYaU/D9OmdOFcMMBuCJHN/ohxnHPg1XEOP7vBmPxfGqLtsOfDhRzEccg7kyXlQlpIdQXw9VL0qVpuZOAHm+utCuL9GThyjp46dOsGrfB7gMWuGkhlBdv9+2ElT4qUlfGXbH3+CnTq9QZfvt54cn8lvr4ag53uZEcRwtmo+rBzoRyV4uTdwQBj++hvY3V/BtmwJb9BdgJD0f0i2BMmbUPtMfM+BkICp8rzDN7AinufB930YY4IxW74hZ1srZ9a5XC7AqUNdndO36FFbKtNW9TlWXY3BsWJu/EwJChKTd/o1m7cgx6IF8CWxoC+HYLlpU+A3b56XIBbAgvhxC3JxnWMs7bvz7JMoksw+CS8pKQn61FcSleTMCGLAIGk+HU+Wr+pgJCewShDHN98E7/FR9YURYhFaoHtltRDOEdeVpXF0ZXFMMqI4yaCoHf2oKLEcF5UgDepeGSZk5LeVla9yJYmrKNCRNicHYV5FRZA4i1RbJkt/LLampia46oqxpZCEUHF1JKgPJZIthThF7di6MYO+BG2gLlBP549eMSbhJshwHNfWHaXqmCR5THjWDNgePepvMy5/kkqhHZMmQWzrbZ1VogVGbXSlKAnBhWK8Or+K06f22aa+ggKnEpjFRIMxeUo9/tJS1Mj/GBElOX55OczMaTBNmpwnUYhxbQJi6/YM+tEi6U9vI/aVSObiFqu+aEucNvRBnB9irn3gX4BUVxDdMZAmqQGJuYkpbr/di1r52EvaAlf3Qa5DhyBZrhItOjB0/qitQkoc9d34aq/FJ8WnrRJDWyVL46e2ghiEzilagBtYk3eL4RVSXc5zrPb0FVxBKYB92qkuWxZQKgdmGoN2GoPzaq/+dE4J0Xjqk2P6Un21T4UgJUeTZRIaQIvT4jlH4ViT1OKpSx/86N6jhZEQ9cuiKNSnuL7cgom78WnvxtcYbnzau/ELJohJuIE1mCbHgEySY5VogUxIddSeY5LClqKFu7b0qTjtKNq68fVC6Lzrg/pufMbjvMYvmCAG1SQ1sLYaXOepq6L3OAuhHnVUj60ueU1eW86xTxvqUHTs2hOP+uVYcY3v2uqcG/8fjSrw8EqLoGwAAAAASUVORK5CYII=;" parent="1" vertex="1">
          <mxGeometry x="504" y="85" width="47.37" height="50" as="geometry" />
        </mxCell>
        <mxCell id="pRpbqJPYh5tRWzyOHzXr-4" value="Client" style="text;html=1;strokeColor=none;fillColor=none;align=left;verticalAlign=middle;whiteSpace=wrap;rounded=0;dashed=1;" parent="1" vertex="1">
          <mxGeometry x="551.37" y="100" width="60" height="30" as="geometry" />
        </mxCell>
        <mxCell id="pRpbqJPYh5tRWzyOHzXr-9" value="Kafka" style="rounded=1;whiteSpace=wrap;html=1;sketch=1;fillStyle=zigzag;fillColor=#FFCCCC;strokeColor=#FF6666;" parent="1" vertex="1">
          <mxGeometry x="901" y="662" width="107.5" height="40" as="geometry" />
        </mxCell>
        <mxCell id="lwtTn2MNMBpjFwnvTcyq-12" value="" style="rounded=1;whiteSpace=wrap;html=1;strokeColor=#333333;fillColor=default;dashed=1;" parent="1" vertex="1">
          <mxGeometry x="310" y="360" width="600" height="100" as="geometry" />
        </mxCell>
        <mxCell id="lwtTn2MNMBpjFwnvTcyq-14" value="RPA核心能力服务" style="text;strokeColor=none;align=center;fillColor=none;html=1;verticalAlign=middle;whiteSpace=wrap;rounded=0;" parent="1" vertex="1">
          <mxGeometry x="310" y="370" width="60" height="30" as="geometry" />
        </mxCell>
        <mxCell id="lwtTn2MNMBpjFwnvTcyq-15" value="" style="rounded=1;whiteSpace=wrap;html=1;strokeColor=#333333;fillColor=default;dashed=1;" parent="1" vertex="1">
          <mxGeometry x="309" y="480" width="601" height="85" as="geometry" />
        </mxCell>
        <mxCell id="lwtTn2MNMBpjFwnvTcyq-16" value="基础能力服务" style="text;strokeColor=none;align=center;fillColor=none;html=1;verticalAlign=middle;whiteSpace=wrap;rounded=0;" parent="1" vertex="1">
          <mxGeometry x="309" y="500" width="60" height="30" as="geometry" />
        </mxCell>
        <mxCell id="lwtTn2MNMBpjFwnvTcyq-23" value="" style="endArrow=classic;html=1;rounded=0;exitX=0.5;exitY=1;exitDx=0;exitDy=0;" parent="1" edge="1">
          <mxGeometry width="50" height="50" relative="1" as="geometry">
            <mxPoint x="515" y="342" as="sourcePoint" />
            <mxPoint x="515" y="360" as="targetPoint" />
          </mxGeometry>
        </mxCell>
        <mxCell id="YRVLzr-1FdWUMx4J7AZH-1" value="" style="endArrow=classic;html=1;rounded=0;exitX=0.5;exitY=1;exitDx=0;exitDy=0;entryX=0.5;entryY=0;entryDx=0;entryDy=0;" parent="1" source="VgrEgSO6s5cVSUkasEul-1" edge="1">
          <mxGeometry width="50" height="50" relative="1" as="geometry">
            <mxPoint x="460" y="350" as="sourcePoint" />
            <mxPoint x="515" y="302" as="targetPoint" />
          </mxGeometry>
        </mxCell>
        <mxCell id="YRVLzr-1FdWUMx4J7AZH-2" value="Gateway" style="rounded=1;whiteSpace=wrap;html=1;fillColor=#CCFF99;strokeColor=#009900;sketch=1;fillStyle=zigzag;" parent="1" vertex="1">
          <mxGeometry x="470.18" y="302" width="90" height="40" as="geometry" />
        </mxCell>
        <mxCell id="xytIpixbSLqPQ9hjoXOC-23" style="edgeStyle=orthogonalEdgeStyle;rounded=0;orthogonalLoop=1;jettySize=auto;html=1;exitX=0.75;exitY=1;exitDx=0;exitDy=0;entryX=0.5;entryY=0;entryDx=0;entryDy=0;" parent="1" source="YRVLzr-1FdWUMx4J7AZH-3" target="YRVLzr-1FdWUMx4J7AZH-15" edge="1">
          <mxGeometry relative="1" as="geometry">
            <Array as="points">
              <mxPoint x="458" y="470" />
              <mxPoint x="580" y="470" />
            </Array>
          </mxGeometry>
        </mxCell>
        <mxCell id="xytIpixbSLqPQ9hjoXOC-36" style="edgeStyle=orthogonalEdgeStyle;rounded=0;orthogonalLoop=1;jettySize=auto;html=1;exitX=0.5;exitY=1;exitDx=0;exitDy=0;entryX=0.5;entryY=0;entryDx=0;entryDy=0;" parent="1" source="YRVLzr-1FdWUMx4J7AZH-3" target="6wdk3MQn_ypX_ZGZaD3e-14" edge="1">
          <mxGeometry relative="1" as="geometry">
            <Array as="points">
              <mxPoint x="430" y="490" />
              <mxPoint x="709" y="490" />
            </Array>
          </mxGeometry>
        </mxCell>
        <mxCell id="YRVLzr-1FdWUMx4J7AZH-3" value="Cornerstone" style="rounded=1;whiteSpace=wrap;html=1;fillColor=#CCFF99;strokeColor=#009900;sketch=1;fillStyle=zigzag;" parent="1" vertex="1">
          <mxGeometry x="393" y="393.25" width="87" height="36.75" as="geometry" />
        </mxCell>
        <mxCell id="YRVLzr-1FdWUMx4J7AZH-13" value="User" style="rounded=1;whiteSpace=wrap;html=1;fillColor=#CCFF99;strokeColor=#009900;sketch=1;fillStyle=zigzag;" parent="1" vertex="1">
          <mxGeometry x="389" y="509" width="90" height="40" as="geometry" />
        </mxCell>
        <mxCell id="YRVLzr-1FdWUMx4J7AZH-15" value="User-acl" style="rounded=1;whiteSpace=wrap;html=1;fillColor=#CCFF99;strokeColor=#009900;sketch=1;fillStyle=zigzag;" parent="1" vertex="1">
          <mxGeometry x="535.37" y="509" width="90" height="40" as="geometry" />
        </mxCell>
        <mxCell id="YRVLzr-1FdWUMx4J7AZH-17" value="Middleware-service" style="rounded=1;whiteSpace=wrap;html=1;fillColor=#FFCCE6;strokeColor=#FF3399;sketch=1;fillStyle=zigzag;" parent="1" vertex="1">
          <mxGeometry x="930" y="460" width="90" height="40" as="geometry" />
        </mxCell>
        <mxCell id="U6RbFgQv2WVAk324HTFA-1" value="Redis" style="rounded=1;whiteSpace=wrap;html=1;sketch=1;fillStyle=zigzag;fillColor=#FFCCCC;strokeColor=#FF6666;" parent="1" vertex="1">
          <mxGeometry x="600" y="662" width="90" height="40" as="geometry" />
        </mxCell>
        <mxCell id="6wdk3MQn_ypX_ZGZaD3e-2" value="OBS" style="rounded=1;whiteSpace=wrap;html=1;sketch=1;fillStyle=zigzag;fillColor=#FFCCCC;strokeColor=#FF6666;" parent="1" vertex="1">
          <mxGeometry x="290" y="662" width="107.5" height="40" as="geometry" />
        </mxCell>
        <mxCell id="6wdk3MQn_ypX_ZGZaD3e-4" value="Xybot-oss" style="rounded=1;whiteSpace=wrap;html=1;fillColor=#99FFCC;strokeColor=#00994D;sketch=1;fillStyle=zigzag;" parent="1" vertex="1">
          <mxGeometry x="791.37" y="510.5" width="78.63" height="39.5" as="geometry" />
        </mxCell>
        <mxCell id="6wdk3MQn_ypX_ZGZaD3e-14" value="&lt;div&gt;Saas-boot&lt;/div&gt;" style="rounded=1;whiteSpace=wrap;html=1;fillColor=#CCFF99;strokeColor=#009900;sketch=1;fillStyle=zigzag;" parent="1" vertex="1">
          <mxGeometry x="664" y="510" width="90" height="40" as="geometry" />
        </mxCell>
        <mxCell id="_SQGPPkX1VehuZLkRjfJ-1" value="配置/注册中心" style="text;strokeColor=none;align=center;fillColor=none;html=1;verticalAlign=middle;whiteSpace=wrap;rounded=0;" parent="1" vertex="1">
          <mxGeometry x="945" y="420" width="60" height="30" as="geometry" />
        </mxCell>
        <mxCell id="xytIpixbSLqPQ9hjoXOC-3" value="Dispatch" style="rounded=1;whiteSpace=wrap;html=1;fillColor=#CCFF99;strokeColor=#009900;sketch=1;fillStyle=zigzag;" parent="1" vertex="1">
          <mxGeometry x="505" y="393.25" width="71.81" height="36.75" as="geometry" />
        </mxCell>
        <mxCell id="xytIpixbSLqPQ9hjoXOC-4" value="Book-v3" style="rounded=1;whiteSpace=wrap;html=1;fillColor=#CCFF99;strokeColor=#009900;sketch=1;fillStyle=zigzag;" parent="1" vertex="1">
          <mxGeometry x="800" y="391.62" width="70" height="36.75" as="geometry" />
        </mxCell>
        <mxCell id="G36thTx9nsijrW9UV3m1-1" value="" style="endArrow=classic;html=1;rounded=0;exitX=0.25;exitY=1;exitDx=0;exitDy=0;entryX=0.289;entryY=-0.054;entryDx=0;entryDy=0;entryPerimeter=0;" parent="1" source="YRVLzr-1FdWUMx4J7AZH-3" target="YRVLzr-1FdWUMx4J7AZH-13" edge="1">
          <mxGeometry width="50" height="50" relative="1" as="geometry">
            <mxPoint x="460" y="490" as="sourcePoint" />
            <mxPoint x="510" y="440" as="targetPoint" />
          </mxGeometry>
        </mxCell>
        <mxCell id="G36thTx9nsijrW9UV3m1-2" value="包含在nginx中" style="text;html=1;strokeColor=none;fillColor=none;align=left;verticalAlign=middle;whiteSpace=wrap;rounded=0;dashed=1;" parent="1" vertex="1">
          <mxGeometry x="124" y="410" width="80" height="30" as="geometry" />
        </mxCell>
        <mxCell id="G36thTx9nsijrW9UV3m1-5" value="" style="endArrow=classic;html=1;rounded=0;exitX=1;exitY=0.5;exitDx=0;exitDy=0;entryX=0;entryY=0.5;entryDx=0;entryDy=0;" parent="1" source="xytIpixbSLqPQ9hjoXOC-3" target="G36thTx9nsijrW9UV3m1-7" edge="1">
          <mxGeometry width="50" height="50" relative="1" as="geometry">
            <mxPoint x="645" y="500" as="sourcePoint" />
            <mxPoint x="695" y="450" as="targetPoint" />
          </mxGeometry>
        </mxCell>
        <mxCell id="G36thTx9nsijrW9UV3m1-7" value="Robot" style="rounded=1;whiteSpace=wrap;html=1;fillColor=#CCFF99;strokeColor=#009900;sketch=1;fillStyle=zigzag;" parent="1" vertex="1">
          <mxGeometry x="605" y="393.25" width="70" height="36.75" as="geometry" />
        </mxCell>
        <mxCell id="HkzT4EEhZ_A4qRm8JSUK-1" value="" style="aspect=fixed;html=1;points=[];align=center;image;fontSize=12;image=img/lib/azure2/networking/Load_Balancers.svg;" parent="1" vertex="1">
          <mxGeometry x="492.37" y="162" width="47" height="47" as="geometry" />
        </mxCell>
        <mxCell id="HkzT4EEhZ_A4qRm8JSUK-2" value="ELB" style="text;html=1;strokeColor=none;fillColor=none;align=left;verticalAlign=middle;whiteSpace=wrap;rounded=0;dashed=1;" parent="1" vertex="1">
          <mxGeometry x="546.37" y="172.5" width="29.63" height="30" as="geometry" />
        </mxCell>
        <mxCell id="HkzT4EEhZ_A4qRm8JSUK-3" value="" style="endArrow=classic;html=1;rounded=0;exitX=0.25;exitY=1;exitDx=0;exitDy=0;" parent="1" source="pRpbqJPYh5tRWzyOHzXr-3" target="HkzT4EEhZ_A4qRm8JSUK-1" edge="1">
          <mxGeometry width="50" height="50" relative="1" as="geometry">
            <mxPoint x="590" y="160" as="sourcePoint" />
            <mxPoint x="640" y="110" as="targetPoint" />
          </mxGeometry>
        </mxCell>
        <mxCell id="HkzT4EEhZ_A4qRm8JSUK-4" value="" style="endArrow=classic;html=1;rounded=0;exitX=0.486;exitY=0.976;exitDx=0;exitDy=0;exitPerimeter=0;entryX=0.432;entryY=0;entryDx=0;entryDy=0;entryPerimeter=0;" parent="1" source="HkzT4EEhZ_A4qRm8JSUK-1" target="VgrEgSO6s5cVSUkasEul-61" edge="1">
          <mxGeometry width="50" height="50" relative="1" as="geometry">
            <mxPoint x="590" y="160" as="sourcePoint" />
            <mxPoint x="640" y="110" as="targetPoint" />
          </mxGeometry>
        </mxCell>
        <mxCell id="HkzT4EEhZ_A4qRm8JSUK-5" value="Xybot-bi" style="rounded=1;whiteSpace=wrap;html=1;fillColor=#CCFF99;strokeColor=#009900;sketch=1;fillStyle=zigzag;" parent="1" vertex="1">
          <mxGeometry x="700" y="391.62" width="70" height="36.75" as="geometry" />
        </mxCell>
        <mxCell id="HkzT4EEhZ_A4qRm8JSUK-7" value="Adpter" style="rounded=1;whiteSpace=wrap;html=1;fillColor=#CCFF99;strokeColor=#009900;sketch=1;fillStyle=zigzag;" parent="1" vertex="1">
          <mxGeometry x="630" y="302" width="90" height="40" as="geometry" />
        </mxCell>
        <mxCell id="U3jnmWhVIj3AwYOQu_sv-1" value="" style="endArrow=classic;html=1;rounded=0;exitX=0.547;exitY=1.004;exitDx=0;exitDy=0;exitPerimeter=0;" edge="1" parent="1" source="lwtTn2MNMBpjFwnvTcyq-15">
          <mxGeometry width="50" height="50" relative="1" as="geometry">
            <mxPoint x="638" y="565" as="sourcePoint" />
            <mxPoint x="638" y="640" as="targetPoint" />
          </mxGeometry>
        </mxCell>
      </root>
    </mxGraphModel>
  </diagram>
</mxfile>
